<svg id="Livello_1" data-name="Livello 1" xmlns="http://www.w3.org/2000/svg" viewBox="0 0 534.85 706.86"><defs><style>.cls-1{fill:#ad4833;}.cls-2{fill:#c75f47;}.cls-3{fill:#de836d;}.cls-4{fill:#cfc4a6;}.cls-5{fill:#f5eee2;}.cls-6{fill:#1d1d1b;}.cls-7{fill:#e96e5c;}.cls-8{fill:#f08f80;}.cls-9{fill:#ed8b75;}.cls-10,.cls-11,.cls-31{fill:none;}.cls-10,.cls-11{stroke:#1d1d1b;}.cls-10,.cls-11,.cls-31,.cls-32{stroke-miterlimit:10;}.cls-10{stroke-width:5px;}.cls-12{fill:#ec8956;}.cls-13{fill:#f3b98a;}.cls-14{fill:#f7d4a9;}.cls-15{fill:#cbc5ac;}.cls-16{fill:#f7d39e;}.cls-17{fill:#fbe5b7;}.cls-18{fill:#eaba91;}.cls-19{fill:#814e1f;}.cls-20{fill:#e2a640;}.cls-21{fill:#b22c2b;}.cls-22{fill:#9e7839;}.cls-23{fill:#5a9a6f;}.cls-24{fill:#e1c188;}.cls-25{fill:#f0ca68;}.cls-26{fill:#fff;}.cls-27{fill:#d889b9;}.cls-28{fill:#da546c;}.cls-29{fill:#fdf0c6;}.cls-30{fill:#f29fa6;}.cls-31,.cls-32{stroke:#000101;}.cls-32{fill:#cd8db7;}</style></defs><path class="cls-1" d="M265.79,92.41c10.42,17.46-4,15-12.66,12.3A26,26,0,0,0,255,89.92c3.47.65,7.08,1.47,10.81,2.49Z" transform="translate(-32.91 -50.33)"/><path class="cls-2" d="M264,89.59c.66,1,1.26,1.94,1.78,2.82-3.73-1-7.34-1.84-10.81-2.49a44.29,44.29,0,0,0-4.25-13.44A75.08,75.08,0,0,1,264,89.59Z" transform="translate(-32.91 -50.33)"/><path class="cls-3" d="M255,89.92a26,26,0,0,1-1.84,14.79c-1-.31-2-.63-2.76-.91a45.69,45.69,0,0,0-.56-14.72C251.5,89.31,253.22,89.6,255,89.92Z" transform="translate(-32.91 -50.33)"/><path class="cls-3" d="M250.72,76.48A44.29,44.29,0,0,1,255,89.92c-1.75-.32-3.47-.61-5.16-.84a38,38,0,0,0-13-21.92,103.85,103.85,0,0,1,13.9,9.3A0,0,0,0,0,250.72,76.48Z" transform="translate(-32.91 -50.33)"/><path class="cls-1" d="M249.81,89.08a45.69,45.69,0,0,1,.56,14.72c-1.73-.61-2.85-1.08-2.85-1.08-6.86-4.48-14.32-2-20,1.47,1.43-2.19,5.52-9,4.44-16.33A113.13,113.13,0,0,1,249.81,89.08Z" transform="translate(-32.91 -50.33)"/><path class="cls-4" d="M247.52,102.72a17.07,17.07,0,0,1,1,10.52h0c-8.38-4.88-22.2,2.51-22.2,2.51-11.58,8.32-35,22.11-35,22.11-24.65,16.46-52.87,16-52.87,16-33.26,1.28-67.87-18-67.87-18h0A26.9,26.9,0,0,1,72.62,128s.81.75,2.42,1.95a67.87,67.87,0,0,0,6.6,4.31c11.88,6.85,35.33,16.14,69.28,10.48,0,0,.7-.08,2-.28,1.58-.25,4.05-.69,7.18-1.39h0a137.46,137.46,0,0,0,17.4-5.17c1.65-.61,3.35-1.28,5.08-2a118.56,118.56,0,0,0,15.06-7.57c2.61-1.55,5.21-3.25,7.76-5.11a90.89,90.89,0,0,0,13-11.44s.81-.91,2.21-2.22h0a44,44,0,0,1,6.9-5.31,0,0,0,0,1,0,0C233.2,100.71,240.66,98.24,247.52,102.72Z" transform="translate(-32.91 -50.33)"/><path class="cls-5" d="M197.61,151.29c0,.33-.09,9.65-10,6.92,0,0,3.17,8.13,11.69-1,0,0,8.72-2.4,8.33-12.79C207.61,144.43,201.29,157.61,197.61,151.29ZM228,118.79c.63.39,15.74,9.69,8.37,0C236.34,118.78,239.15,124.09,228,118.79Zm4.76,13.31c-.77,1.07-9.39,12.94-10.39,2.53C222.34,134.63,220.89,151.55,232.73,132.1Zm-16,16.24c.56.93,13.21,21.81,10.93,3.76C227.84,154.27,228,163.28,216.74,148.34Zm30.38-30.94a10.22,10.22,0,0,1-1.4,13.4,13.61,13.61,0,0,1,.51,10.82c3.35,8-3.86,12.62-3.86,12.62a11.46,11.46,0,0,1-5.67,6.18c-1.29,5.15-8.24,5.15-8.24,5.15C226.91,172,216.61,173,216.61,173c-.26,9.28-12.88,6.7-12.88,6.7-2.83,7.21-12.88,6.7-12.88,6.7-8,11.07-17.77,7.21-17.77,7.21-5.93,9.53-18.81,4.09-18.81,4.09-9.79,5.11-16.23-2.14-16.23-2.14-7.72,5.29-11.84-.92-11.84-.92a13.53,13.53,0,0,1-12.88-1.8c-6.44,1.29-11.34-3.35-11.34-3.35-13.65,0-17.77-5.15-17.77-5.15-10-4.9-9.79-12.62-9.79-12.62-5.92-5.93-1.8-14.43-1.8-14.43-6.18-4.38,0-14.17,0-14.17-2-1.84-2.35-4.62-2.13-7.3h0s34.61,19.28,67.87,18c0,0,28.22.46,52.87-16,0,0,23.47-13.79,35-22.11,0,0,13.82-7.39,22.2-2.51A17.64,17.64,0,0,1,247.12,117.4ZM181,178.07s4.74-3.42-2.16-8.39c0,0,4.32,12.06-11.42,3C167.38,172.68,170.39,181.74,181,178.07Zm-41.09-13.8c4,1.26,2.12-3,2.12-3-4.89-5.49-14.56,1-14.56,1C132.28,161.31,139.87,164.27,139.87,164.27Zm-31.36,2.23s10.5,9,10.36-3.22c0,0-2.1,7.56-10.22.42,0,0-6.31,4.9-8.83-3.08C99.82,160.62,97.58,171.54,108.51,166.5Zm-24.66-9.95S92,156,96.32,158.37c0,0-7.28-9.1-13.59-5.32C82.73,153.05,79.65,156.55,83.85,156.55Z" transform="translate(-32.91 -50.33)"/><path class="cls-6" d="M236.34,118.78c7.37,9.7-7.74.4-8.37,0C239.15,124.09,236.34,118.78,236.34,118.78Z" transform="translate(-32.91 -50.33)"/><path class="cls-2" d="M236.81,67.16a38,38,0,0,1,13,21.92A113.13,113.13,0,0,0,232,87.86a15.54,15.54,0,0,0-.64-2.7,17.84,17.84,0,0,0-3.41-5.86c2.34-.35,4.86-.61,7.57-.75a94.08,94.08,0,0,0-9.6-1.6l-.43-.48c-.95-1.07-4.83-5.31-13.14-10.32a91.82,91.82,0,0,0-17.38-8,116.27,116.27,0,0,0-20-5.22c26.89-.81,47.33,6.16,61.8,14.24Z" transform="translate(-32.91 -50.33)"/><path class="cls-3" d="M232,87.86c1.08,7.33-3,14.14-4.44,16.33a0,0,0,0,0,0,0,44,44,0,0,0-6.9,5.31c4.3-10.27,5-17,4.55-21.35Q228.44,87.91,232,87.86Z" transform="translate(-32.91 -50.33)"/><path class="cls-3" d="M231.34,85.16a15.54,15.54,0,0,1,.64,2.7q-3.54,0-6.8.3c-.58-5.18-2.9-6.86-2.9-6.86-.22-.25-.46-.51-.71-.75,2-.48,4.07-.91,6.36-1.25A17.84,17.84,0,0,1,231.34,85.16Z" transform="translate(-32.91 -50.33)"/><path class="cls-7" d="M235.5,78.55c-2.71.14-5.23.4-7.57.75-.61-.75-1.29-1.52-2-2.35A94.08,94.08,0,0,1,235.5,78.55Z" transform="translate(-32.91 -50.33)"/><path class="cls-6" d="M227.67,152.1c2.28,18.05-10.37-2.83-10.93-3.76C228,163.28,227.84,154.27,227.67,152.1Z" transform="translate(-32.91 -50.33)"/><path class="cls-8" d="M225.9,77c.74.83,1.42,1.6,2,2.35-2.29.34-4.41.77-6.36,1.25a32.82,32.82,0,0,0-5-4.08A74.66,74.66,0,0,1,225.9,77Z" transform="translate(-32.91 -50.33)"/><path class="cls-3" d="M225.47,76.47l.43.48a74.66,74.66,0,0,0-9.36-.48,91.69,91.69,0,0,0-14.06-7.64c-22.65-11.74-48.79-13.5-49.4-13.54A183.82,183.82,0,0,1,172.3,53c.9,0,1.78-.08,2.66-.11h0a116.27,116.27,0,0,1,20,5.22,91.82,91.82,0,0,1,17.38,8C220.64,71.16,224.52,75.4,225.47,76.47Z" transform="translate(-32.91 -50.33)"/><path class="cls-1" d="M225.18,88.16c.48,4.32-.25,11.08-4.55,21.35h0c-1.4,1.31-2.21,2.22-2.21,2.22a90.89,90.89,0,0,1-13,11.44,81.3,81.3,0,0,0,3.69-20.49c.33-6.84-.45-9.39-1.32-11.2,0-.08-.08-.17-.13-.25A91.53,91.53,0,0,1,225.18,88.16Z" transform="translate(-32.91 -50.33)"/><path class="cls-6" d="M222.34,134.63c1,10.41,9.62-1.46,10.39-2.53C220.89,151.55,222.34,134.63,222.34,134.63Z" transform="translate(-32.91 -50.33)"/><path class="cls-2" d="M222.28,81.3s2.32,1.68,2.9,6.86a91.53,91.53,0,0,0-17.57,3.08,14.85,14.85,0,0,0-2.87-4c3.3-1.66,4.83-2.45,6.7-3.27a62.16,62.16,0,0,1,10.13-3.42C221.82,80.79,222.06,81.05,222.28,81.3Z" transform="translate(-32.91 -50.33)"/><path class="cls-7" d="M221.57,80.55A62.16,62.16,0,0,0,211.44,84c-1.87.82-3.4,1.61-6.7,3.27a41.14,41.14,0,0,0-7.13-5.35c-.9-.58-1.76-1.09-2.61-1.57,2-.67,4-1.3,5.75-1.77a61.27,61.27,0,0,1,15.79-2.08A32.82,32.82,0,0,1,221.57,80.55Z" transform="translate(-32.91 -50.33)"/><path class="cls-2" d="M202.48,68.83a91.69,91.69,0,0,1,14.06,7.64,61.27,61.27,0,0,0-15.79,2.08C199,79,197,79.65,195,80.32a81,81,0,0,0-10.06-4.49,143,143,0,0,0-13.6-4.63,128,128,0,0,0-28.8-4.79,125.66,125.66,0,0,0-33.29,2.85c13.85-7.7,30.93-11.81,43.82-14h0C153.69,55.33,179.83,57.09,202.48,68.83Z" transform="translate(-32.91 -50.33)"/><path class="cls-3" d="M207.74,91.49c.87,1.81,1.65,4.36,1.32,11.2a81.3,81.3,0,0,1-3.69,20.49c-2.55,1.86-5.15,3.56-7.76,5.11,1.62-6.76,3.73-20,3.73-20,2-6.73,1.14-11.51-.61-14.83,2-.77,4.32-1.55,6.88-2.26C207.66,91.32,207.7,91.41,207.74,91.49Z" transform="translate(-32.91 -50.33)"/><path class="cls-6" d="M207.61,144.43c.39,10.39-8.33,12.79-8.33,12.79-8.52,9.12-11.69,1-11.69,1,9.93,2.73,10-6.59,10-6.92C201.29,157.61,207.61,144.43,207.61,144.43Z" transform="translate(-32.91 -50.33)"/><path class="cls-3" d="M204.74,87.24a14.85,14.85,0,0,1,2.87,4c-2.56.71-4.86,1.49-6.88,2.26a14.46,14.46,0,0,0-2.26-3.16C201.14,89,203.15,88,204.74,87.24Z" transform="translate(-32.91 -50.33)"/><path class="cls-8" d="M197.61,81.89a41.14,41.14,0,0,1,7.13,5.35c-1.59.79-3.6,1.8-6.27,3.1A14.71,14.71,0,0,0,193,86.65a36.91,36.91,0,0,0-6.91-3.27c1.39-.5,2.8-1,4.23-1.49s3.07-1,4.65-1.57C195.85,80.8,196.71,81.31,197.61,81.89Z" transform="translate(-32.91 -50.33)"/><path class="cls-1" d="M200.73,93.5c1.75,3.32,2.58,8.1.61,14.83,0,0-2.11,13.2-3.73,20a118.56,118.56,0,0,1-15.06,7.57c2.9-17.2-.75-25.66-4.13-29.67A115.16,115.16,0,0,0,189.83,99,51.25,51.25,0,0,1,200.73,93.5Z" transform="translate(-32.91 -50.33)"/><path class="cls-2" d="M198.47,90.34a14.46,14.46,0,0,1,2.26,3.16A51.25,51.25,0,0,0,189.83,99a115.16,115.16,0,0,1-11.41,7.24,11.65,11.65,0,0,0-4.1-3.27c2.63-1.64,5.77-3.58,10.69-6.09,1.86-1,.77-.35,7.83-3.75C195,92,196.86,91.13,198.47,90.34Z" transform="translate(-32.91 -50.33)"/><path class="cls-7" d="M198.47,90.34c-1.61.79-3.47,1.7-5.63,2.74-7.06,3.4-6,2.8-7.83,3.75-4.92,2.51-8.06,4.45-10.69,6.09l-.26-.1c-3.59-2.55-11.17-4.73-18.54-6.37l.48-.23c2.15-1,5.47-2.67,11.38-5.6,0,0,8.59-3.61,18.74-7.24A36.91,36.91,0,0,1,193,86.65,14.71,14.71,0,0,1,198.47,90.34Z" transform="translate(-32.91 -50.33)"/><path class="cls-3" d="M184.94,75.83A81,81,0,0,1,195,80.32c-1.58.52-3.17,1.06-4.65,1.57s-2.84,1-4.23,1.49A175.36,175.36,0,0,0,168.51,78C143,69.8,99.24,76.35,98.45,76.47c1.57-1.19,2.5-1.82,2.5-1.82a67.17,67.17,0,0,1,8.3-5.39,125.66,125.66,0,0,1,33.29-2.85,128,128,0,0,1,28.8,4.79A143,143,0,0,1,184.94,75.83Z" transform="translate(-32.91 -50.33)"/><path class="cls-3" d="M178.42,106.19c3.38,4,7,12.47,4.13,29.67-1.73.72-3.43,1.39-5.08,2l.9-11.66c.19-8-3-13.23-6.58-16.57C174,108.59,176.17,107.44,178.42,106.19Z" transform="translate(-32.91 -50.33)"/><path class="cls-6" d="M178.8,169.68c6.9,5,2.16,8.39,2.16,8.39-10.57,3.67-13.58-5.39-13.58-5.39C183.12,181.74,178.8,169.68,178.8,169.68Z" transform="translate(-32.91 -50.33)"/><path class="cls-2" d="M168.51,78a175.36,175.36,0,0,1,17.61,5.35C176,87,167.38,90.62,167.38,90.62c-5.91,2.93-9.23,4.56-11.38,5.6l-.48.23C146.08,94.34,137,93.12,137,93.12c-25-5-55.33-1-55.33-1a117.71,117.71,0,0,1,16.8-15.65h0C99.24,76.35,143,69.8,168.51,78Z" transform="translate(-32.91 -50.33)"/><path class="cls-1" d="M171.79,109.63c3.62,3.34,6.77,8.56,6.58,16.57l-.9,11.66a137.46,137.46,0,0,1-17.4,5.17c1.19-16.07-6.42-22-12.57-24.25A134.66,134.66,0,0,0,171.79,109.63Z" transform="translate(-32.91 -50.33)"/><path class="cls-9" d="M174.32,102.92a11.65,11.65,0,0,1,4.1,3.27c-2.25,1.25-4.47,2.4-6.63,3.44a23.2,23.2,0,0,0-4-2.93C170.15,105.53,172,104.34,174.32,102.92Z" transform="translate(-32.91 -50.33)"/><path class="cls-8" d="M174.06,102.82l.26.1c-2.28,1.42-4.17,2.61-6.5,3.78a23.35,23.35,0,0,0-6.27-2.59c-3-1.5-8.54-2.75-14.68-3.75l4.74-2.1c1.14-.51,2.07-.93,3.91-1.81C162.89,98.09,170.47,100.27,174.06,102.82Z" transform="translate(-32.91 -50.33)"/><path class="cls-2" d="M167.82,106.7a23.2,23.2,0,0,1,4,2.93,134.66,134.66,0,0,1-24.29,9.15,21.28,21.28,0,0,0-7.29-1.3c-6.85-.91-16.87-1.81-25.61-2.52h-.11C98.36,113.3,76.17,99,76.17,99q.64-.89,1.29-1.74s21.88-.86,40.16,0c0,0,16,1,29.25,3.15a50.28,50.28,0,0,1-5.23,2,67.84,67.84,0,0,1-24.29,2.32s1.92.7,4.6,1.6,6.13,2,9.19,2.82c6.57,1.76,13.5,3.61,21.93,2.44a43.35,43.35,0,0,0,11.06-3.22C165.52,107.8,166.72,107.25,167.82,106.7Z" transform="translate(-32.91 -50.33)"/><path class="cls-7" d="M167.82,106.7c-1.1.55-2.3,1.1-3.69,1.65a43.35,43.35,0,0,1-11.06,3.22c-8.43,1.17-15.36-.68-21.93-2.44-3.06-.82-6.51-1.92-9.19-2.82s-4.6-1.6-4.6-1.6a67.84,67.84,0,0,0,24.29-2.32,50.28,50.28,0,0,0,5.23-2c6.14,1,11.67,2.25,14.68,3.75A23.35,23.35,0,0,1,167.82,106.7Z" transform="translate(-32.91 -50.33)"/><path class="cls-3" d="M114.6,115c8.74.71,18.76,1.61,25.61,2.52a21.28,21.28,0,0,1,7.29,1.3C153.65,121,161.26,127,160.07,143h0c-3.13.7-5.6,1.14-7.18,1.39,2.12-19.84-16.13-21.05-16.13-21.05-11.86-2.09-40.44-3.74-40.44-3.74-14.78-.86-14.68,14.59-14.68,14.59a67.87,67.87,0,0,1-6.6-4.31s1.54-17.61,21.28-16.32c0,0,8.25.55,18.17,1.35Z" transform="translate(-32.91 -50.33)"/><path class="cls-3" d="M137,93.12s9.11,1.22,18.55,3.33c-1.84.88-2.77,1.3-3.91,1.81l-4.74,2.1c-13.2-2.14-29.25-3.15-29.25-3.15-18.28-.86-40.16,0-40.16,0,1.36-1.78,2.77-3.48,4.18-5.09C81.64,92.12,112,88.16,137,93.12Z" transform="translate(-32.91 -50.33)"/><path class="cls-1" d="M136.76,123.38s18.25,1.21,16.13,21.05c-1.27.2-2,.28-2,.28-33.95,5.66-57.4-3.63-69.28-10.48,0,0-.1-15.45,14.68-14.59C96.32,119.64,124.9,121.29,136.76,123.38Z" transform="translate(-32.91 -50.33)"/><path class="cls-6" d="M142,161.26s1.89,4.27-2.12,3c0,0-7.59-3-12.44-2C127.43,162.28,137.1,155.77,142,161.26Z" transform="translate(-32.91 -50.33)"/><path class="cls-6" d="M118.87,163.28c.14,12.18-10.36,3.22-10.36,3.22-10.93,5-8.69-5.88-8.69-5.88,2.52,8,8.83,3.08,8.83,3.08C116.77,170.84,118.87,163.28,118.87,163.28Z" transform="translate(-32.91 -50.33)"/><path class="cls-1" d="M114.49,115c-9.92-.8-18.17-1.35-18.17-1.35C76.58,112.31,75,129.92,75,129.92c-1.61-1.2-2.42-1.95-2.42-1.95-10.82-5.41-.78-22.41-.78-22.41A77.56,77.56,0,0,1,76.17,99S98.36,113.3,114.49,115Z" transform="translate(-32.91 -50.33)"/><path class="cls-6" d="M96.32,158.37C92,156,83.85,156.55,83.85,156.55c-4.2,0-1.12-3.5-1.12-3.5C89,149.27,96.32,158.37,96.32,158.37Z" transform="translate(-32.91 -50.33)"/><path class="cls-10" d="M98.44,76.47a117.71,117.71,0,0,0-16.8,15.65c-1.41,1.61-2.82,3.31-4.18,5.09q-.64.86-1.29,1.74a77.56,77.56,0,0,0-4.33,6.61s-10,17,.78,22.41a26.9,26.9,0,0,0-2.13,7.89c-.22,2.68.18,5.46,2.13,7.3,0,0-6.18,9.79,0,14.17,0,0-4.12,8.5,1.8,14.43,0,0-.26,7.72,9.79,12.62,0,0,4.12,5.15,17.77,5.15,0,0,4.9,4.64,11.34,3.35a13.53,13.53,0,0,0,12.88,1.8s4.12,6.21,11.84.92c0,0,6.44,7.25,16.23,2.14,0,0,12.88,5.44,18.81-4.09,0,0,9.78,3.86,17.77-7.21,0,0,10.05.51,12.88-6.7,0,0,12.62,2.58,12.88-6.7,0,0,10.3-1,11.85-7.47,0,0,6.95,0,8.24-5.15a11.46,11.46,0,0,0,5.67-6.18s7.21-4.64,3.86-12.62a13.61,13.61,0,0,0-.51-10.82,10.22,10.22,0,0,0,1.4-13.4,17.64,17.64,0,0,0,1.37-4.16" transform="translate(-32.91 -50.33)"/><path class="cls-10" d="M153.07,55.29c-12.89,2.16-30,6.27-43.82,14a67.17,67.17,0,0,0-8.3,5.39s-.93.63-2.5,1.82" transform="translate(-32.91 -50.33)"/><path class="cls-10" d="M175,52.9c-.88,0-1.76.06-2.66.11a183.82,183.82,0,0,0-19.22,2.28" transform="translate(-32.91 -50.33)"/><path class="cls-10" d="M236.78,67.14c-14.47-8.08-34.91-15-61.8-14.24" transform="translate(-32.91 -50.33)"/><path class="cls-10" d="M250.71,76.46a103.85,103.85,0,0,0-13.9-9.3" transform="translate(-32.91 -50.33)"/><path class="cls-10" d="M265.78,92.41c-.52-.88-1.12-1.83-1.78-2.82a75.08,75.08,0,0,0-13.28-13.11" transform="translate(-32.91 -50.33)"/><path class="cls-10" d="M248.5,113.24a17.07,17.07,0,0,0-1-10.52s1.12.47,2.85,1.08c.8.28,1.74.6,2.76.91,8.62,2.65,23.08,5.16,12.66-12.3" transform="translate(-32.91 -50.33)"/><path class="cls-10" d="M160.07,143c-3.13.7-5.6,1.14-7.18,1.39-1.27.2-2,.28-2,.28-33.95,5.66-57.4-3.63-69.28-10.48a67.87,67.87,0,0,1-6.6-4.31c-1.61-1.2-2.42-1.95-2.42-1.95" transform="translate(-32.91 -50.33)"/><path class="cls-10" d="M220.62,109.52c-1.4,1.31-2.21,2.22-2.21,2.22a90.89,90.89,0,0,1-13,11.44c-2.55,1.86-5.15,3.56-7.76,5.11a118.56,118.56,0,0,1-15.06,7.57c-1.73.72-3.43,1.39-5.08,2a137.46,137.46,0,0,1-17.4,5.17" transform="translate(-32.91 -50.33)"/><path class="cls-10" d="M227.53,104.2a44,44,0,0,0-6.9,5.31" transform="translate(-32.91 -50.33)"/><path class="cls-10" d="M247.52,102.72c-6.86-4.48-14.32-2-20,1.47" transform="translate(-32.91 -50.33)"/><path class="cls-11" d="M96.32,158.37s-7.28-9.1-13.59-5.32c0,0-3.08,3.5,1.12,3.5C83.85,156.55,92,156,96.32,158.37Z" transform="translate(-32.91 -50.33)"/><path class="cls-11" d="M127.43,162.28s9.67-6.51,14.56-1c0,0,1.89,4.27-2.12,3C139.87,164.27,132.28,161.31,127.43,162.28Z" transform="translate(-32.91 -50.33)"/><path class="cls-11" d="M99.82,160.62s-2.24,10.92,8.69,5.88c0,0,10.5,9,10.36-3.22,0,0-2.1,7.56-10.22.42C108.65,163.7,102.34,168.6,99.82,160.62Z" transform="translate(-32.91 -50.33)"/><path class="cls-11" d="M167.38,172.68s3,9.06,13.58,5.39c0,0,4.74-3.42-2.16-8.39C178.8,169.68,183.12,181.74,167.38,172.68Z" transform="translate(-32.91 -50.33)"/><line class="cls-10" x1="127.16" y1="92.69" x2="127.16" y2="92.7"/><line class="cls-11" x1="164.7" y1="100.95" x2="164.7" y2="100.94"/><path class="cls-11" d="M197.61,151.29c0,.33-.09,9.65-10,6.92,0,0,3.17,8.13,11.69-1,0,0,8.72-2.4,8.33-12.79C207.61,144.43,201.29,157.61,197.61,151.29Z" transform="translate(-32.91 -50.33)"/><path class="cls-11" d="M227.62,151.67c0,.15,0,.29,0,.43.17,2.17.34,11.18-10.93-3.76l0,0" transform="translate(-32.91 -50.33)"/><path class="cls-11" d="M216.74,148.34c.56.93,13.21,21.81,10.93,3.76" transform="translate(-32.91 -50.33)"/><path class="cls-11" d="M232.73,132.1l0,0,0-.06" transform="translate(-32.91 -50.33)"/><path class="cls-11" d="M222.34,134.63s-1.45,16.92,10.39-2.53C232,133.17,223.34,145,222.34,134.63Z" transform="translate(-32.91 -50.33)"/><path class="cls-11" d="M228,118.79c.63.39,15.74,9.69,8.37,0C236.34,118.78,239.15,124.09,228,118.79Z" transform="translate(-32.91 -50.33)"/><path class="cls-11" d="M228,118.78h0" transform="translate(-32.91 -50.33)"/><line class="cls-10" x1="215.58" y1="62.9" x2="215.59" y2="62.9"/><path class="cls-10" d="M98.44,76.47h0" transform="translate(-32.91 -50.33)"/><line class="cls-10" x1="187.72" y1="59.17" x2="187.71" y2="59.18"/><path class="cls-10" d="M153.07,55.29h0" transform="translate(-32.91 -50.33)"/><path class="cls-10" d="M227.54,104.19a0,0,0,0,0,0,0" transform="translate(-32.91 -50.33)"/><path class="cls-10" d="M175,52.9h0" transform="translate(-32.91 -50.33)"/><path class="cls-10" d="M236.78,67.14l0,0" transform="translate(-32.91 -50.33)"/><path class="cls-10" d="M250.71,76.46a0,0,0,0,0,0,0" transform="translate(-32.91 -50.33)"/><line class="cls-10" x1="232.87" y1="42.07" x2="232.88" y2="42.07"/><path class="cls-12" d="M233.61,647.54c10.41,17.46-4.06,15-12.67,12.3a26,26,0,0,0,1.84-14.79C226.26,645.7,229.87,646.52,233.61,647.54Z" transform="translate(-32.91 -50.33)"/><path class="cls-13" d="M231.82,644.71c.67,1,1.26,1.94,1.79,2.83-3.74-1-7.35-1.84-10.83-2.49a44.14,44.14,0,0,0-4.25-13.46C227.51,638.73,231.82,644.71,231.82,644.71Z" transform="translate(-32.91 -50.33)"/><path class="cls-14" d="M222.78,645.05a26,26,0,0,1-1.84,14.79c-1-.31-1.95-.62-2.75-.91a45.41,45.41,0,0,0-.58-14.73Q220.15,644.56,222.78,645.05Z" transform="translate(-32.91 -50.33)"/><path class="cls-14" d="M218.53,631.59a44.14,44.14,0,0,1,4.25,13.46q-2.64-.49-5.17-.85h0c-3.1-14.78-13-21.93-13-21.93A102.08,102.08,0,0,1,218.53,631.59Z" transform="translate(-32.91 -50.33)"/><path class="cls-12" d="M217.61,644.2a45.41,45.41,0,0,1,.58,14.73c-1.74-.61-2.86-1.08-2.86-1.08-6.86-4.49-14.32-2-20,1.47,1.43-2.2,5.52-9,4.44-16.34a115.37,115.37,0,0,1,17.82,1.21Z" transform="translate(-32.91 -50.33)"/><path class="cls-15" d="M215.33,657.85a17.12,17.12,0,0,1,1,10.51c-8.39-4.89-22.22,2.52-22.22,2.52-11.58,8.32-35,22.11-35,22.11-24.66,16.46-52.87,16-52.87,16-33.27,1.28-67.88-18-67.88-18a27.05,27.05,0,0,1,2.12-7.89s.81.75,2.42,1.95a65.8,65.8,0,0,0,6.61,4.31c11.89,6.86,35.34,16.15,69.28,10.49,0,0,.7-.08,2-.28,1.58-.25,4.05-.68,7.17-1.39a137.73,137.73,0,0,0,17.4-5.18q2.49-.91,5.08-2a120.58,120.58,0,0,0,15.06-7.57c2.6-1.55,5.2-3.25,7.76-5.11a91.58,91.58,0,0,0,13-11.45s.81-.91,2.21-2.22h0a44.33,44.33,0,0,1,6.89-5.3h0C201,655.84,208.47,653.36,215.33,657.85Z" transform="translate(-32.91 -50.33)"/><path class="cls-5" d="M184.56,703.46c.56.94,13.28,21.95,10.91,3.59C195.63,708.81,196.18,718.88,184.56,703.46Zm16-16.24c-.77,1.08-9.38,12.95-10.39,2.54C190.15,689.76,188.7,706.68,200.54,687.22Zm-4.76-13.31c.63.39,15.75,9.69,8.38,0C204.16,673.9,207,679.21,195.78,673.91Zm-30.36,32.5c0,.33-.09,9.65-10,6.93,0,0,3.18,8.13,11.7-1,0,0,8.72-2.4,8.32-12.79C175.42,699.56,169.1,712.74,165.42,706.41Zm49.52-33.88a10.23,10.23,0,0,1-1.41,13.4,13.59,13.59,0,0,1,.51,10.81c3.35,8-3.86,12.63-3.86,12.63a11.47,11.47,0,0,1-5.67,6.18c-1.28,5.15-8.24,5.15-8.24,5.15-1.54,6.44-11.85,7.47-11.85,7.47-.26,9.27-12.88,6.7-12.88,6.7-2.83,7.21-12.88,6.69-12.88,6.69-8,11.08-17.77,7.22-17.77,7.22-5.92,9.53-18.8,4.08-18.8,4.08-9.79,5.12-16.23-2.14-16.23-2.14C98.13,756,94,749.81,94,749.81A13.53,13.53,0,0,1,81.13,748c-6.44,1.29-11.33-3.34-11.33-3.34C56.14,744.66,52,739.5,52,739.5c-10-4.89-9.79-12.62-9.79-12.62-5.92-5.92-1.8-14.42-1.8-14.42-6.18-4.38,0-14.17,0-14.17-2-1.85-2.34-4.63-2.12-7.31,0,0,34.61,19.29,67.88,18,0,0,28.21.46,52.87-16,0,0,23.46-13.79,35-22.11,0,0,13.83-7.41,22.22-2.52A17.89,17.89,0,0,1,214.94,672.53ZM148.77,733.2s4.75-3.42-2.15-8.4c0,0,4.31,12.06-11.43,3C135.19,727.81,138.21,736.86,148.77,733.2ZM110.27,722a5.61,5.61,0,1,0-5.61,5.61A5.61,5.61,0,0,0,110.27,722Zm-32-.4s10.5,9,10.36-3.23c0,0-2.1,7.57-10.22.42,0,0-6.31,4.91-8.83-3.08C69.61,715.74,67.37,726.67,78.3,721.63Zm-13.79-8.79a5.61,5.61,0,1,0-5.61,5.61A5.61,5.61,0,0,0,64.51,712.84Z" transform="translate(-32.91 -50.33)"/><path class="cls-6" d="M204.16,673.9c7.37,9.7-7.75.4-8.38,0C207,679.21,204.16,673.9,204.16,673.9Z" transform="translate(-32.91 -50.33)"/><path class="cls-13" d="M204.58,622.26s9.93,7.15,13,21.93A115.37,115.37,0,0,0,199.79,643a15.66,15.66,0,0,0-.64-2.69,17.89,17.89,0,0,0-3.4-5.86c2.34-.35,4.85-.61,7.56-.75a91.07,91.07,0,0,0-9.59-1.59l-.43-.49c-1-1.07-4.83-5.32-13.14-10.32a92,92,0,0,0-17.39-8,116.52,116.52,0,0,0-20-5.21h0C169.67,607.2,190.11,614.17,204.58,622.26Z" transform="translate(-32.91 -50.33)"/><path class="cls-14" d="M199.79,643c1.08,7.34-3,14.14-4.44,16.34h0a44.33,44.33,0,0,0-6.89,5.3c4.31-10.27,5-17,4.55-21.35Q196.26,643,199.79,643Z" transform="translate(-32.91 -50.33)"/><path class="cls-14" d="M199.15,640.29a15.66,15.66,0,0,1,.64,2.69q-3.54,0-6.79.3c-.58-5.17-2.9-6.85-2.9-6.85-.23-.26-.47-.51-.72-.76,2-.48,4.07-.9,6.37-1.24A17.89,17.89,0,0,1,199.15,640.29Z" transform="translate(-32.91 -50.33)"/><path class="cls-16" d="M203.31,633.68c-2.71.14-5.22.4-7.56.75-.62-.75-1.29-1.51-2-2.34A91.07,91.07,0,0,1,203.31,633.68Z" transform="translate(-32.91 -50.33)"/><path class="cls-6" d="M195.47,707.05c2.37,18.36-10.35-2.65-10.91-3.59C196.18,718.88,195.63,708.81,195.47,707.05Z" transform="translate(-32.91 -50.33)"/><path class="cls-17" d="M193.72,632.09c.74.83,1.41,1.59,2,2.34-2.3.34-4.42.76-6.37,1.24a35.18,35.18,0,0,0-5-4.09A77,77,0,0,1,193.72,632.09Z" transform="translate(-32.91 -50.33)"/><path class="cls-14" d="M193.29,631.6l.43.49a77,77,0,0,0-9.36-.51A92.68,92.68,0,0,0,170.3,624c-22.92-11.88-49.42-13.53-49.42-13.53h0a184.15,184.15,0,0,1,19.24-2.28c.9,0,1.78-.08,2.66-.11h0a116.52,116.52,0,0,1,20,5.21,92,92,0,0,1,17.39,8C188.46,626.28,192.33,630.53,193.29,631.6Z" transform="translate(-32.91 -50.33)"/><path class="cls-12" d="M193,643.28c.49,4.32-.24,11.08-4.55,21.35h0c-1.4,1.31-2.21,2.22-2.21,2.22a91.58,91.58,0,0,1-13,11.45,81.46,81.46,0,0,0,3.7-20.5c.33-6.84-.46-9.38-1.32-11.2l-.13-.26A92.08,92.08,0,0,1,193,643.28Z" transform="translate(-32.91 -50.33)"/><path class="cls-6" d="M190.15,689.76c1,10.41,9.62-1.46,10.39-2.54C188.7,706.68,190.15,689.76,190.15,689.76Z" transform="translate(-32.91 -50.33)"/><path class="cls-18" d="M190.1,636.43s2.32,1.68,2.9,6.85a92.08,92.08,0,0,0-17.57,3.07,15.34,15.34,0,0,0-2.87-4c3.3-1.65,4.83-2.44,6.69-3.26a61.14,61.14,0,0,1,10.13-3.43C189.63,635.92,189.87,636.17,190.1,636.43Z" transform="translate(-32.91 -50.33)"/><path class="cls-16" d="M189.38,635.67a61.14,61.14,0,0,0-10.13,3.43c-1.86.82-3.39,1.61-6.69,3.26a42.26,42.26,0,0,0-7.14-5.34c-.89-.58-1.75-1.1-2.6-1.57,2-.67,4-1.3,5.74-1.77a61.67,61.67,0,0,1,15.8-2.1A35.18,35.18,0,0,1,189.38,635.67Z" transform="translate(-32.91 -50.33)"/><path class="cls-13" d="M170.3,624a92.68,92.68,0,0,1,14.06,7.63,61.67,61.67,0,0,0-15.8,2.1c-1.73.47-3.72,1.1-5.74,1.77A80.34,80.34,0,0,0,152.75,631a137.16,137.16,0,0,0-13.59-4.63,126.93,126.93,0,0,0-28.81-4.79,125.59,125.59,0,0,0-33.28,2.84c13.84-7.7,30.92-11.81,43.81-14h0S147.38,612.07,170.3,624Z" transform="translate(-32.91 -50.33)"/><path class="cls-14" d="M175.56,646.61c.86,1.82,1.65,4.36,1.32,11.2a81.46,81.46,0,0,1-3.7,20.5c-2.56,1.86-5.16,3.56-7.76,5.11h0c1.63-6.75,3.74-19.95,3.74-19.95,2-6.73,1.13-11.52-.62-14.84,2-.77,4.32-1.55,6.89-2.27Z" transform="translate(-32.91 -50.33)"/><path class="cls-6" d="M175.42,699.56c.4,10.39-8.32,12.79-8.32,12.79-8.52,9.12-11.7,1-11.7,1,9.93,2.72,10-6.6,10-6.93C169.1,712.74,175.42,699.56,175.42,699.56Z" transform="translate(-32.91 -50.33)"/><path class="cls-14" d="M172.56,642.36a15.34,15.34,0,0,1,2.87,4c-2.57.72-4.87,1.5-6.89,2.27a14.06,14.06,0,0,0-2.26-3.15C169,644.16,171,643.16,172.56,642.36Z" transform="translate(-32.91 -50.33)"/><path class="cls-17" d="M165.42,637a42.26,42.26,0,0,1,7.14,5.34c-1.6.8-3.61,1.8-6.28,3.11a14.74,14.74,0,0,0-5.44-3.7,36.69,36.69,0,0,0-6.89-3.26c1.38-.5,2.8-1,4.22-1.49s3.07-1,4.65-1.57C163.67,635.92,164.53,636.44,165.42,637Z" transform="translate(-32.91 -50.33)"/><path class="cls-12" d="M168.54,648.62c1.75,3.32,2.59,8.11.62,14.84,0,0-2.11,13.2-3.74,19.95h0A120.58,120.58,0,0,1,150.36,691h0c2.9-17.21-.75-25.67-4.12-29.67a113.89,113.89,0,0,0,11.4-7.24A51.25,51.25,0,0,1,168.54,648.62Z" transform="translate(-32.91 -50.33)"/><path class="cls-18" d="M166.28,645.47a14.06,14.06,0,0,1,2.26,3.15,51.25,51.25,0,0,0-10.9,5.45,113.89,113.89,0,0,1-11.4,7.24,11.88,11.88,0,0,0-4.11-3.26c2.63-1.64,5.77-3.57,10.69-6.09,1.86-1,.78-.35,7.83-3.76Z" transform="translate(-32.91 -50.33)"/><path class="cls-16" d="M166.28,645.47l-5.63,2.73c-7.05,3.41-6,2.8-7.83,3.76-4.92,2.52-8.06,4.45-10.69,6.09l-.26-.1c-3.59-2.55-11.16-4.73-18.52-6.38l.46-.22c2.16-1,5.48-2.67,11.38-5.6,0,0,8.6-3.61,18.76-7.24a36.69,36.69,0,0,1,6.89,3.26A14.74,14.74,0,0,1,166.28,645.47Z" transform="translate(-32.91 -50.33)"/><path class="cls-14" d="M152.75,631a80.34,80.34,0,0,1,10.07,4.49c-1.58.52-3.17,1.06-4.65,1.57s-2.84,1-4.22,1.49a175.82,175.82,0,0,0-17.63-5.35c-25.7-8.32-70.06-1.56-70.06-1.56,1.58-1.2,2.51-1.83,2.51-1.83a67.17,67.17,0,0,1,8.3-5.39,125.59,125.59,0,0,1,33.28-2.84,126.93,126.93,0,0,1,28.81,4.79A137.16,137.16,0,0,1,152.75,631Z" transform="translate(-32.91 -50.33)"/><path class="cls-14" d="M146.24,661.31c3.37,4,7,12.46,4.12,29.67h0q-2.6,1.08-5.08,2l.91-11.66c.19-8-3-13.23-6.58-16.57C141.77,663.72,144,662.57,146.24,661.31Z" transform="translate(-32.91 -50.33)"/><path class="cls-6" d="M146.62,724.8c6.9,5,2.15,8.4,2.15,8.4-10.56,3.66-13.58-5.39-13.58-5.39C150.93,736.86,146.62,724.8,146.62,724.8Z" transform="translate(-32.91 -50.33)"/><path class="cls-13" d="M136.32,633.16A175.82,175.82,0,0,1,154,638.51c-10.16,3.63-18.76,7.24-18.76,7.24-5.9,2.93-9.22,4.56-11.38,5.6l-.46.22c-9.44-2.1-18.56-3.33-18.56-3.33-25-5-55.33-1-55.33-1a117.5,117.5,0,0,1,16.8-15.64S110.62,624.84,136.32,633.16Z" transform="translate(-32.91 -50.33)"/><path class="cls-12" d="M139.61,664.76c3.62,3.34,6.77,8.56,6.58,16.57L145.28,693a137.73,137.73,0,0,1-17.4,5.18h0c1.2-16.08-6.42-22-12.57-24.25h0A134,134,0,0,0,139.61,664.76Z" transform="translate(-32.91 -50.33)"/><path class="cls-14" d="M142.13,658.05a11.88,11.88,0,0,1,4.11,3.26c-2.25,1.26-4.47,2.41-6.63,3.45a23.2,23.2,0,0,0-4-2.93C138,660.67,139.85,659.47,142.13,658.05Z" transform="translate(-32.91 -50.33)"/><path class="cls-17" d="M141.87,658l.26.1c-2.28,1.42-4.16,2.62-6.49,3.78a23.35,23.35,0,0,0-6.27-2.59c-3-1.5-8.54-2.75-14.69-3.75,1.31-.57,2.85-1.26,4.74-2.11,1.15-.51,2.08-.93,3.93-1.81C130.71,653.22,138.28,655.4,141.87,658Z" transform="translate(-32.91 -50.33)"/><path class="cls-13" d="M135.64,661.83a23.2,23.2,0,0,1,4,2.93,134,134,0,0,1-24.3,9.14h0a21.28,21.28,0,0,0-7.29-1.3c-6.77-.9-16.65-1.79-25.33-2.5-15.94-1.43-38.11-15.65-38.7-16,.42-.59.85-1.16,1.28-1.73,0,0,21.88-.86,40.16,0,0,0,16,1,29.25,3.15a50.26,50.26,0,0,1-5.22,2,67.85,67.85,0,0,1-24.29,2.32s1.91.7,4.59,1.6,6.13,2,9.19,2.82c6.58,1.75,13.5,3.6,21.93,2.43A44,44,0,0,0,132,663.48C133.34,662.93,134.54,662.38,135.64,661.83Z" transform="translate(-32.91 -50.33)"/><path class="cls-16" d="M135.64,661.83c-1.1.55-2.3,1.1-3.69,1.65a44,44,0,0,1-11.07,3.21c-8.43,1.17-15.35-.68-21.93-2.43-3.06-.82-6.51-1.92-9.19-2.82s-4.59-1.6-4.59-1.6a67.85,67.85,0,0,0,24.29-2.32,50.26,50.26,0,0,0,5.22-2c6.15,1,11.67,2.25,14.69,3.75A23.35,23.35,0,0,1,135.64,661.83Z" transform="translate(-32.91 -50.33)"/><path class="cls-14" d="M115.31,673.91c6.15,2.2,13.77,8.17,12.57,24.25h0c-3.12.71-5.59,1.14-7.17,1.39,2.12-19.85-16.14-21.06-16.14-21.06-11.86-2.08-40.44-3.73-40.44-3.73-14.78-.87-14.67,14.58-14.67,14.58A65.8,65.8,0,0,1,42.85,685s1.55-17.61,21.28-16.31c0,0,8.46.56,18.56,1.38,8.68.71,18.56,1.6,25.33,2.5A21.28,21.28,0,0,1,115.31,673.91Z" transform="translate(-32.91 -50.33)"/><path class="cls-14" d="M104.79,648.24s9.12,1.23,18.56,3.33c-1.85.88-2.78,1.3-3.93,1.81-1.89.85-3.43,1.54-4.74,2.11-13.2-2.14-29.25-3.15-29.25-3.15-18.28-.86-40.16,0-40.16,0q2.05-2.69,4.19-5.1S79.77,643.28,104.79,648.24Z" transform="translate(-32.91 -50.33)"/><path class="cls-12" d="M104.57,678.5s18.26,1.21,16.14,21.06c-1.27.2-2,.28-2,.28-33.94,5.66-57.39-3.63-69.28-10.49,0,0-.11-15.45,14.67-14.58C64.13,674.77,92.71,676.42,104.57,678.5Z" transform="translate(-32.91 -50.33)"/><circle class="cls-6" cx="71.75" cy="671.7" r="5.61"/><path class="cls-6" d="M88.66,718.4c.14,12.19-10.36,3.23-10.36,3.23-10.93,5-8.69-5.89-8.69-5.89,2.52,8,8.83,3.08,8.83,3.08C86.56,726,88.66,718.4,88.66,718.4Z" transform="translate(-32.91 -50.33)"/><path class="cls-12" d="M82.69,670.11c-10.1-.82-18.56-1.38-18.56-1.38C44.4,667.43,42.85,685,42.85,685c-1.61-1.2-2.42-1.95-2.42-1.95-10.82-5.41-.77-22.41-.77-22.41A77.56,77.56,0,0,1,44,654.07C44.58,654.46,66.75,668.68,82.69,670.11Z" transform="translate(-32.91 -50.33)"/><circle class="cls-6" cx="25.99" cy="662.51" r="5.61"/><path class="cls-10" d="M40.43,683.09A27.05,27.05,0,0,0,38.31,691c-.22,2.68.17,5.46,2.12,7.31,0,0-6.18,9.79,0,14.17,0,0-4.12,8.5,1.8,14.42,0,0-.25,7.73,9.79,12.62,0,0,4.12,5.16,17.78,5.16,0,0,4.89,4.63,11.33,3.34A13.53,13.53,0,0,0,94,749.81s4.12,6.21,11.85.91c0,0,6.44,7.26,16.23,2.14,0,0,12.88,5.45,18.8-4.08,0,0,9.79,3.86,17.77-7.22,0,0,10.05.52,12.88-6.69,0,0,12.62,2.57,12.88-6.7,0,0,10.31-1,11.85-7.47,0,0,7,0,8.24-5.15a11.47,11.47,0,0,0,5.67-6.18s7.21-4.64,3.86-12.63a13.59,13.59,0,0,0-.51-10.81,10.23,10.23,0,0,0,1.41-13.4,17.89,17.89,0,0,0,1.38-4.17,17.12,17.12,0,0,0-1-10.51s1.12.47,2.86,1.08c.8.29,1.73.6,2.75.91,8.61,2.65,23.08,5.16,12.67-12.3-.53-.89-1.12-1.83-1.79-2.83,0,0-4.31-6-13.29-13.12a102.08,102.08,0,0,0-13.95-9.33c-14.47-8.09-34.91-15.06-61.8-14.24-.88,0-1.76.06-2.66.11a184.15,184.15,0,0,0-19.24,2.28c-12.89,2.16-30,6.27-43.81,14a67.17,67.17,0,0,0-8.3,5.39s-.93.63-2.51,1.83a117.5,117.5,0,0,0-16.8,15.64q-2.13,2.41-4.19,5.1c-.43.57-.86,1.14-1.28,1.73a77.56,77.56,0,0,0-4.33,6.61S29.61,677.68,40.43,683.09Z" transform="translate(-32.91 -50.33)"/><path class="cls-10" d="M188.44,664.64c-1.4,1.31-2.21,2.22-2.21,2.22a91.58,91.58,0,0,1-13,11.45c-2.56,1.86-5.16,3.56-7.76,5.11A120.58,120.58,0,0,1,150.36,691q-2.6,1.08-5.08,2a137.73,137.73,0,0,1-17.4,5.18c-3.12.71-5.59,1.14-7.17,1.39-1.27.2-2,.28-2,.28-33.94,5.66-57.39-3.63-69.28-10.49A65.8,65.8,0,0,1,42.85,685c-1.61-1.2-2.42-1.95-2.42-1.95" transform="translate(-32.91 -50.33)"/><path class="cls-10" d="M195.34,659.33a44.33,44.33,0,0,0-6.89,5.3" transform="translate(-32.91 -50.33)"/><path class="cls-10" d="M215.33,657.85c-6.86-4.49-14.32-2-20,1.47" transform="translate(-32.91 -50.33)"/><path class="cls-11" d="M69.61,715.74s-2.24,10.93,8.69,5.89c0,0,10.5,9,10.36-3.23,0,0-2.1,7.57-10.22.42C78.44,718.82,72.13,723.73,69.61,715.74Z" transform="translate(-32.91 -50.33)"/><path class="cls-11" d="M135.19,727.81s3,9.05,13.58,5.39c0,0,4.75-3.42-2.15-8.4C146.62,724.8,150.93,736.86,135.19,727.81Z" transform="translate(-32.91 -50.33)"/><line class="cls-11" x1="132.51" y1="656.08" x2="132.51" y2="656.07"/><path class="cls-11" d="M165.42,706.41c0,.33-.09,9.65-10,6.93,0,0,3.18,8.13,11.7-1,0,0,8.72-2.4,8.32-12.79C175.42,699.56,169.1,712.74,165.42,706.41Z" transform="translate(-32.91 -50.33)"/><path class="cls-11" d="M195.44,706.8l0,.25c.16,1.76.71,11.83-10.91-3.59l0,0" transform="translate(-32.91 -50.33)"/><path class="cls-11" d="M184.56,703.46c.56.94,13.28,21.95,10.91,3.59" transform="translate(-32.91 -50.33)"/><path class="cls-11" d="M200.54,687.22l0,0,0-.06" transform="translate(-32.91 -50.33)"/><path class="cls-11" d="M190.15,689.76s-1.45,16.92,10.39-2.54C199.77,688.3,191.16,700.17,190.15,689.76Z" transform="translate(-32.91 -50.33)"/><path class="cls-11" d="M195.78,673.91c.63.39,15.75,9.69,8.38,0C204.16,673.9,207,679.21,195.78,673.91Z" transform="translate(-32.91 -50.33)"/><path class="cls-11" d="M195.76,673.9h0" transform="translate(-32.91 -50.33)"/><line class="cls-10" x1="155.54" y1="614.3" x2="155.53" y2="614.31"/><path class="cls-10" d="M195.35,659.32h0" transform="translate(-32.91 -50.33)"/><circle class="cls-11" cx="25.99" cy="662.51" r="5.61"/><circle class="cls-11" cx="71.75" cy="671.7" r="5.61"/><path class="cls-19" d="M425,373.42a37.12,37.12,0,0,1-.94,9.73c-1.2,6.66-2.2,12-6.45,16.52-.79.83-5.88,6.06-13.27,6.46-4.77.25-6.65-1.71-18.71-6.46l-1.92-.77a86.77,86.77,0,0,0-8.75-3.13c-9.31-2.54-15.91-.79-35.26,2.25l-5.52.86c-7.23,1.12-11.15,1.7-12.94,1.81-1.58.08-3.27.12-5.08.06-1.57-.06-3.19-.17-4.92-.35-.81-.11-1.67-.21-2.52-.34-7.85-1.21-17.25-4.1-28.06-10.25l-6.06-.85a13.17,13.17,0,0,0,2.08-.81,34.29,34.29,0,0,1-10.81-21.23s24.31,20.25,50.66,17.69c0,0,16.73-2.9,35.69-5.15,0,0,27-8.44,35.35-2.77,0,0,9.95-9.12-3.86-18.44,0,0-19.64-9.66-24.49-15.31.93.88,3.25,1.92,8.14-.77a26.81,26.81,0,0,0,3.6,1.38c7.61,2.33,12,.83,23.69,1.58,6,.4,9,.58,10.87,1.23C416.44,350.09,424.25,362.19,425,373.42Z" transform="translate(-32.91 -50.33)"/><path class="cls-20" d="M385.61,399.67c12.06,4.75,13.94,6.71,18.71,6.46A93.91,93.91,0,0,1,402,426.08c-9.89-4.35-17.37-4.37-22.85-2.69l-1.64-5.64,7.45-13.56-2.27-1.44,1-3.85Z" transform="translate(-32.91 -50.33)"/><path class="cls-21" d="M402,426.08c-5.81,26-20.45,45.75-20.45,45.75s-22.88-11-17.65-31.6a31.82,31.82,0,0,1,2.56-6.65,21.86,21.86,0,0,1,12.69-10.19C384.59,421.71,392.07,421.73,402,426.08Z" transform="translate(-32.91 -50.33)"/><path class="cls-22" d="M383.69,358.25c13.81,9.32,3.86,18.44,3.86,18.44-8.36-5.67-35.35,2.77-35.35,2.77-19,2.25-35.69,5.15-35.69,5.15-26.35,2.56-50.66-17.69-50.66-17.69a34.29,34.29,0,0,0,10.81,21.23,13.17,13.17,0,0,1-2.08.81c-8.52,2.4-19.69-5-19.69-5-10.85-9.64-36.08-2.56-36.08-2.56-16.23,3.75-22.14-16.25-22.45-17.42,0,0,0,0,0,0s0,0,0-.06c14.47-29.58,43.2-16.25,43.2-16.25,18.83,8.67,54.12,1.27,54.12,1.27,46.25-12.52,64.93-6.75,64.93-6.75s0,0,0,0a2.76,2.76,0,0,0,.36.48s0,0,0,0a1.12,1.12,0,0,0,.21.23C364.05,348.59,383.69,358.25,383.69,358.25Z" transform="translate(-32.91 -50.33)"/><polygon class="cls-23" points="352.01 353.86 344.55 367.42 341.91 365.71 349.74 352.42 352.01 353.86"/><path class="cls-20" d="M383.69,398.9l-1,3.85L374.82,416l2.65,1.71,1.64,5.64a21.86,21.86,0,0,0-12.69,10.19,31.82,31.82,0,0,0-2.56,6.65l-2.56-.48c2.33-8.48,5-19.9,5-27.65,0,0,3.71-10.58-25.77-7.87a14.68,14.68,0,0,0-5.48.58l-.93-5.93,5.52-.86c19.35-3,25.95-4.79,35.26-2.25A86.77,86.77,0,0,1,383.69,398.9Z" transform="translate(-32.91 -50.33)"/><path class="cls-24" d="M362.65,339.78c1.77.89,3.09,1.66,4.69,2.39-4.89,2.69-7.21,1.65-8.14.77l-.21-.23s0,0,0,0a5.46,5.46,0,0,1-.36-.48s0,0,0,0-18.68-5.77-64.93,6.75c0,0-35.29,7.4-54.12-1.27,0,0-28.73-13.33-43.2,16.25a54.52,54.52,0,0,1,1.43-6.9c2.27-8.06,3.69-13.14,8.29-16.81,5.59-4.48,12.57-4.25,24.52-3.68,8.13.37,11.79,1.41,17.52,2.18,13,1.71,17.54-.56,44-3.2,14.58-1.46,21.87-2.21,30.95-2.17C337.64,333.4,350.18,333.57,362.65,339.78Z" transform="translate(-32.91 -50.33)"/><path class="cls-25" d="M340.57,404.23c29.48-2.71,25.77,7.87,25.77,7.87,0,7.75-2.71,19.17-5,27.65-1.83,6.6-3.46,11.45-3.46,11.45a26,26,0,0,0-18.16-11.1l.62-4.91c5.65,0,6.44-6.73,6.44-6.73a8.7,8.7,0,0,0,2.83,1.79c10.46,2.6,12.81-6.4,12.81-6.4,2.38-13.06-13.95-17.7-13.95-17.7A24.86,24.86,0,0,0,340.57,404.23Z" transform="translate(-32.91 -50.33)"/><path class="cls-20" d="M361.3,439.75l2.56.48c-5.23,20.6,17.65,31.6,17.65,31.6-25.42,32.81-32.81,53.31-32.81,53.31-4.11,22.14-8.19,6.56-8.19,6.56s.35-20,3.75-31.75v0c6.48-1.08,11.17-4.13,11-7.52-.08-2-1.87-3.83-4.73-5.08a26.49,26.49,0,0,0,10.65-13.71,28.76,28.76,0,0,0,1.16-7.73,25.74,25.74,0,0,0-4.54-14.69S359.47,446.35,361.3,439.75Z" transform="translate(-32.91 -50.33)"/><path class="cls-26" d="M334.66,423.44a18.3,18.3,0,0,1-2.21.41s-10.86-.6-4.65-12.79a12.1,12.1,0,0,1,7.29-6.25,14.68,14.68,0,0,1,5.48-.58,24.86,24.86,0,0,1,7.86,1.92s16.33,4.64,13.95,17.7c0,0-2.35,9-12.81,6.4a8.7,8.7,0,0,1-2.83-1.79s-.79,6.73-6.44,6.73a10.08,10.08,0,0,1-3.89-.88S328.45,430.29,334.66,423.44Z" transform="translate(-32.91 -50.33)"/><path d="M362.38,465.89a28.76,28.76,0,0,1-1.16,7.73,26.49,26.49,0,0,1-10.65,13.71,25.86,25.86,0,0,0-10.91-1.75c-5.92.23-11,2-13.46,4.43-2.61-1.33-11.38-6.22-14.63-16.39a27.22,27.22,0,0,1-1.16-7.73,26,26,0,0,1,26-26,25.3,25.3,0,0,1,3.27.21,26,26,0,0,1,22.7,25.79ZM346.3,477.33c3.75-3.77,5.21-8.4,3.25-10.38s-6.6-.5-10.37,3.25-5.21,8.4-3.25,10.38S342.53,481.08,346.3,477.33Zm-11.56-11.56c5.71-5.71,8-12.63,5.23-15.44s-9.73-.48-15.44,5.23-8,12.62-5.23,15.43S329,471.45,334.74,465.77Z" transform="translate(-32.91 -50.33)"/><path class="cls-27" d="M355.3,492.41c.13,3.39-4.56,6.44-11,7.52a29.29,29.29,0,0,1-4.08.44c-8.5.31-15.5-2.75-15.65-6.84A4.69,4.69,0,0,1,326.2,490c2.46-2.43,7.54-4.2,13.46-4.43a25.86,25.86,0,0,1,10.91,1.75C353.43,488.58,355.22,490.37,355.3,492.41Z" transform="translate(-32.91 -50.33)"/><ellipse class="cls-26" cx="342.74" cy="473.77" rx="9.63" ry="5.04" transform="translate(-267.53 330.78) rotate(-45)"/><path class="cls-25" d="M305.78,488.76a16.22,16.22,0,0,1-3.77,3.13,11.65,11.65,0,0,1-7.06,1.67v.06s-1.79,13.31,9.58,15.43C304.53,509.05,318,506.57,305.78,488.76Zm38.48,11.17v0c-3.4,11.75-3.75,31.75-3.75,31.75a82,82,0,0,1-2.5,10.37c-30.08,4.06-14.29,31.06-14.29,31.06l0,0c-1.77,2.86-2.92,4.48-2.92,4.48-13.12,13.13-10.41,25.42-10.41,25.42,2.71,28.7-10.1,22.14-10.1,22.14a2.61,2.61,0,0,1-2.36.17c0-11.71,2.94-18.81,2.94-18.81,3-13.25-1.48-18.69-4-20.59l2.87-3.14.05,0,2.43-2.44-11.79-10.29-2.08,2.31-.9.21a64.48,64.48,0,0,0-17.68-30.58c-.69-17.81-10.79-24.5-18.65-27h0c-.31-.5-5.56-8.2-7.64-16.16,3,1.37,7.41,2,12.22,1.42,8.46-.94,14.94-5,14.48-9.07a4.7,4.7,0,0,0-2.12-3.23c2.5-1.2,11.64-6,15-16.31A23.83,23.83,0,0,0,284.2,464a26,26,0,1,0-52,0,27,27,0,0,0,1.16,7.72c3.05,9.5,10.94,14.25,13.44,15.63-3,1.16-5.35,2.77-6.48,4.54,0,0-9.91-17-16.08-42.58l2.56-.61,2.71,1.07,5.77-14.23-3.08-1.5.58-2.69c3.31.77,5.4-2.71,5.4-2.71a10.51,10.51,0,0,0,.5-1.62c2.48,6.62,8,2.67,8,2.67,5.83-4.92-.32-9.13-.32-9.13a6.36,6.36,0,0,0,2.23-1.29c5.5-6.19.21-11,.21-11a9.69,9.69,0,0,0-8.19-1.92l-.75-2a25.38,25.38,0,0,0,5.8-3s5.75,3.32,11.72,1.5c0,0-6.54,29.19,25.44,36.17l-.61.89s8.88,7.56,11.42,9.88l2.33-2.94a71.49,71.49,0,0,1-9.29-7.31s24.38,3.12,28.73-30l3.81-1.77-3.12-7c1.81.06,3.5,0,5.08-.06,1.79-.11,5.71-.69,12.94-1.81l.93,5.93a12.1,12.1,0,0,0-7.29,6.25c-6.21,12.19,4.65,12.79,4.65,12.79a18.3,18.3,0,0,0,2.21-.41c-6.21,6.85,1.75,10.87,1.75,10.87a10.08,10.08,0,0,0,3.89.88l-.62,4.91a25.3,25.3,0,0,0-3.27-.21,26,26,0,0,0-26,26,27.22,27.22,0,0,0,1.16,7.73c3.25,10.17,12,15.06,14.63,16.39a4.69,4.69,0,0,0-1.67,3.52c.15,4.09,7.15,7.15,15.65,6.84A29.29,29.29,0,0,0,344.26,499.93Zm-15.42,23L327,520.18l-12.33,8.71,1.69,3Zm-15.6,33.76c2.94-9.74-9.1-14.72-9.1-14.72-11.63-6.27-16.17,2-16.17,2-5.79,8.74,2.44,10.16,2.44,10.16a11.09,11.09,0,0,0,1.73-.12c-5.33,4.66.37,8.43.37,8.43,6.67,3.69,8.38-3.56,8.38-3.56a6.53,6.53,0,0,0,2,1.6C310.66,563.34,313.24,556.67,313.24,556.67Zm-50.45-41.28L264.7,513l-11.45-9.89-1.69,2.21Z" transform="translate(-32.91 -50.33)"/><path class="cls-26" d="M340,450.33c2.81,2.81.48,9.73-5.23,15.44s-12.62,8-15.44,5.22-.48-9.72,5.23-15.43S337.16,447.52,340,450.33Z" transform="translate(-32.91 -50.33)"/><path class="cls-21" d="M338,542.07a139.06,139.06,0,0,1-14.27,31.08l0,0S307.93,546.13,338,542.07Z" transform="translate(-32.91 -50.33)"/><polygon class="cls-23" points="294.12 469.85 295.93 472.58 283.47 481.53 281.79 478.56 294.12 469.85"/><path class="cls-23" d="M316.14,400.75l3.12,7-3.81,1.77-4.23-9.14C313,400.58,314.57,400.69,316.14,400.75Z" transform="translate(-32.91 -50.33)"/><path class="cls-20" d="M311.22,400.4l4.23,9.14c-4.35,33.1-28.73,30-28.73,30-.85-.81-1.71-1.67-2.52-2.54l-1.33,2c-32-7-25.44-36.17-25.44-36.17-6,1.82-11.72-1.5-11.72-1.5a25.38,25.38,0,0,1-5.8,3c-9.41,3.52-19.76,1.92-20.33,1.82.65-3.13,1.19-4.82,1.19-4.82,7.19-.08,14.79-3,21.31-8.22,10.52,2.93,18.21,4.16,23.77,4.33,0,0-9,27.41,20.06,31.87,0,0,25.56,1.31,22.79-29.25C309.55,400.19,310.41,400.29,311.22,400.4Z" transform="translate(-32.91 -50.33)"/><path class="cls-26" d="M301.51,552.76l-6-.29a5,5,0,0,1-3.35,1.48,11.09,11.09,0,0,1-1.73.12s-8.23-1.42-2.44-10.16c0,0,4.54-8.23,16.17-2,0,0,12,5,9.1,14.72,0,0-2.58,6.67-10.33,3.75a6.53,6.53,0,0,1-2-1.6c-1-1.27-1.71-3.29.44-6A.82.82,0,0,1,301.51,552.76Z" transform="translate(-32.91 -50.33)"/><path class="cls-21" d="M285.64,422.54v0c-14-10-12-18.85-12-18.85l-5.14,2.48C269.47,412.15,272.93,422.64,285.64,422.54Zm23.06-22.48c2.77,30.56-22.79,29.25-22.79,29.25-29-4.46-20.06-31.87-20.06-31.87,16.14.54,14.79-7.63,14.79-7.63C291.45,396,300.85,398.85,308.7,400.06Z" transform="translate(-32.91 -50.33)"/><path class="cls-28" d="M302,491.89a16.22,16.22,0,0,0,3.77-3.13c12.17,17.81-1.25,20.29-1.25,20.29-11.37-2.12-9.58-15.43-9.58-15.43v-.06A11.65,11.65,0,0,0,302,491.89Z" transform="translate(-32.91 -50.33)"/><polygon class="cls-23" points="269.33 530.09 266.89 532.53 266.85 532.49 255.46 522.11 257.54 519.8 269.33 530.09"/><path class="cls-26" d="M295.49,552.47l6,.29a.82.82,0,0,0-.18.08c-2.15,2.69-1.48,4.71-.44,6,0,0-1.71,7.25-8.38,3.56,0,0-5.7-3.77-.37-8.43A5,5,0,0,0,295.49,552.47Z" transform="translate(-32.91 -50.33)"/><path class="cls-29" d="M296.89,586c2.52,1.9,7,7.34,4,20.59,0,0-3,7.1-2.94,18.81-4.21-1.92-4.21-16.56-4.21-16.56,4.11-23.79-4.08-23-4.08-23l1-2.06a13.21,13.21,0,0,0,4.75,1.27A7.23,7.23,0,0,1,296.89,586Z" transform="translate(-32.91 -50.33)"/><path class="cls-25" d="M299.76,582.82,296.89,586a7.23,7.23,0,0,0-1.52-.91,13.21,13.21,0,0,1-4.75-1.27c-2.69-1.46-1.9-3.46-1.9-3.46a57.1,57.1,0,0,0-1.25-7.67l.9-.21Z" transform="translate(-32.91 -50.33)"/><path class="cls-23" d="M296,446.83l-2.33,2.94c-2.54-2.32-11.42-9.88-11.42-9.88l.61-.89,1.33-2c.81.87,1.67,1.73,2.52,2.54A71.49,71.49,0,0,0,296,446.83Z" transform="translate(-32.91 -50.33)"/><path class="cls-29" d="M290.62,583.78l-1,2.06c-.31.79-.62,1.5-.92,2.17h0c-8,5.16-4.52-10.69-4.52-10.69C281,564,269.62,548.86,269.62,548.86h0a54.73,54.73,0,0,0,.19-6.79,64.48,64.48,0,0,1,17.68,30.58,57.1,57.1,0,0,1,1.25,7.67S287.93,582.32,290.62,583.78Z" transform="translate(-32.91 -50.33)"/><path class="cls-29" d="M288.72,588h0c-9.08,20-11.39-16.13-11.39-16.13-.54-4.85-3.92-11.81-8.19-19,.21-1.39.36-2.75.44-4h0S281,564,284.2,577.32C284.2,577.32,280.72,593.17,288.72,588Z" transform="translate(-32.91 -50.33)"/><path class="cls-30" d="M285.64,422.52v0c-12.71.1-16.17-10.39-17.1-16.39l5.14-2.48S271.64,412.48,285.64,422.52Z" transform="translate(-32.91 -50.33)"/><path d="M284.2,464a23.83,23.83,0,0,1-1.16,7.72c-3.34,10.32-12.48,15.11-15,16.31-2.81-2.06-8.11-3.08-14-2.41a27.67,27.67,0,0,0-7.23,1.73c-2.5-1.38-10.39-6.13-13.44-15.63a27,27,0,0,1-1.16-7.72,26,26,0,1,1,52,0Zm-14.81,10.87c3.77-3.77,5.23-8.4,3.27-10.37s-6.6-.5-10.37,3.27-5.21,8.39-3.25,10.35S265.64,478.62,269.39,474.87Zm-12.12-12.15c5.7-5.7,8.06-12.6,5.23-15.41s-9.71-.48-15.42,5.23S239,465.16,241.83,468,251.56,468.43,257.27,462.72Z" transform="translate(-32.91 -50.33)"/><path class="cls-19" d="M280.64,389.81s1.35,8.17-14.79,7.63c-5.56-.17-13.25-1.4-23.77-4.33-6.52,5.22-14.12,8.14-21.31,8.22a24.27,24.27,0,0,1-10.23-1.95c-1.44-.63-9.23-4-12.75-12-1.31-3-1.48-5.4-1.79-10.21a60.58,60.58,0,0,1,.36-13.17c.31,1.17,6.22,21.17,22.45,17.42,0,0,25.23-7.08,36.08,2.56,0,0,11.17,7.4,19.69,5Z" transform="translate(-32.91 -50.33)"/><path class="cls-26" d="M272.66,464.5c2,2,.5,6.6-3.27,10.37S261,480.08,259,478.12s-.5-6.6,3.25-10.35S270.68,462.54,272.66,464.5Z" transform="translate(-32.91 -50.33)"/><path class="cls-27" d="M270.18,491.26c.46,4.07-6,8.13-14.48,9.07-4.81.54-9.24-.05-12.22-1.42-2.25-1-3.69-2.48-3.9-4.23a4.18,4.18,0,0,1,.77-2.79c1.13-1.77,3.44-3.38,6.48-4.54a27.67,27.67,0,0,1,7.23-1.73c5.89-.67,11.19.35,14,2.41A4.7,4.7,0,0,1,270.18,491.26Z" transform="translate(-32.91 -50.33)"/><path class="cls-21" d="M269.79,542.07a54.73,54.73,0,0,1-.19,6.79c-.08,1.29-.23,2.65-.44,4-8.77-14.68-21.33-30.22-21.33-30.22-2.12-3-4.1-6.09-6-9.08a30.22,30.22,0,0,1,9.25,1.47h0C259,517.57,269.1,524.26,269.79,542.07Z" transform="translate(-32.91 -50.33)"/><polygon class="cls-23" points="231.79 462.68 229.88 465.06 218.65 454.99 220.33 452.79 231.79 462.68"/><path class="cls-26" d="M262.5,447.31c2.83,2.81.47,9.71-5.23,15.41s-12.61,8.07-15.44,5.25-.46-9.72,5.25-15.43S259.68,444.48,262.5,447.31Z" transform="translate(-32.91 -50.33)"/><path class="cls-26" d="M246.41,420.56s6.15,4.21.32,9.13c0,0-5.54,3.95-8-2.67a10.51,10.51,0,0,1-.5,1.62s-2.09,3.48-5.4,2.71c-1.44-.35-3.1-1.5-5-4.08,0,0-6-7.21,4-15.79,0,0,3.9-4.1,8.83-5.13a9.69,9.69,0,0,1,8.19,1.92s5.29,4.81-.21,11A6.36,6.36,0,0,1,246.41,420.56Z" transform="translate(-32.91 -50.33)"/><path class="cls-29" d="M243.48,498.91c2.08,8,7.33,15.66,7.64,16.16a30.22,30.22,0,0,0-9.25-1.47c-30.66-49.81-25.29-93.23-22.31-107.39a164.32,164.32,0,0,0,4.71,43.1c6.17,25.56,16.08,42.58,16.08,42.58a4.18,4.18,0,0,0-.77,2.79C239.79,496.43,241.23,497.89,243.48,498.91Z" transform="translate(-32.91 -50.33)"/><path class="cls-25" d="M239.91,404.33l.75,2c-4.93,1-8.83,5.13-8.83,5.13-10,8.58-4,15.79-4,15.79,1.86,2.58,3.52,3.73,5,4.08l-.58,2.69s-4.42,10.42-5.4,14.66l-2.56.61a164.32,164.32,0,0,1-4.71-43.1s0,0,0-.06C220.15,406.25,230.5,407.85,239.91,404.33Z" transform="translate(-32.91 -50.33)"/><path class="cls-23" d="M235.31,435.54l-5.77,14.23-2.71-1.07c1-4.24,5.4-14.66,5.4-14.66Z" transform="translate(-32.91 -50.33)"/><path class="cls-31" d="M196.36,364s0,0,0-.06a54.52,54.52,0,0,1,1.43-6.9c2.27-8.06,3.69-13.14,8.29-16.81,5.59-4.48,12.57-4.25,24.52-3.68,8.13.37,11.79,1.41,17.52,2.18,13,1.71,17.54-.56,44-3.2,14.58-1.46,21.87-2.21,30.95-2.17,14.57.08,27.11.25,39.58,6.46,1.77.89,3.09,1.66,4.69,2.39a26.81,26.81,0,0,0,3.6,1.38c7.61,2.33,12,.83,23.69,1.58,6,.4,9,.58,10.87,1.23,10.94,3.73,18.75,15.83,19.48,27.06a37.12,37.12,0,0,1-.94,9.73c-1.2,6.66-2.2,12-6.45,16.52-.79.83-5.88,6.06-13.27,6.46-4.77.25-6.65-1.71-18.71-6.46l-1.92-.77a86.77,86.77,0,0,0-8.75-3.13c-9.31-2.54-15.91-.79-35.26,2.25l-5.52.86c-7.23,1.12-11.15,1.7-12.94,1.81-1.58.08-3.27.12-5.08.06-1.57-.06-3.19-.17-4.92-.35-.81-.11-1.67-.21-2.52-.34-7.85-1.21-17.25-4.1-28.06-10.25,0,0,1.35,8.17-14.79,7.63-5.56-.17-13.25-1.4-23.77-4.33-6.52,5.22-14.12,8.14-21.31,8.22a24.27,24.27,0,0,1-10.23-1.95c-1.44-.63-9.23-4-12.75-12-1.31-3-1.48-5.4-1.79-10.21a60.58,60.58,0,0,1,.36-13.17" transform="translate(-32.91 -50.33)"/><path class="cls-31" d="M220.77,401.33s-.54,1.69-1.19,4.82c0,0,0,0,0,.06-3,14.16-8.35,57.58,22.31,107.39,1.86,3,3.84,6,6,9.08,0,0,12.56,15.54,21.33,30.22,4.27,7.17,7.65,14.13,8.19,19,0,0,2.31,36.14,11.39,16.13.3-.67.61-1.38.92-2.17,0,0,8.19-.83,4.08,23,0,0,0,14.64,4.21,16.56a2.61,2.61,0,0,0,2.36-.17s12.81,6.56,10.1-22.14c0,0-2.71-12.29,10.41-25.42,0,0,1.15-1.62,2.92-4.48A139.06,139.06,0,0,0,338,542.07a82,82,0,0,0,2.5-10.37s4.08,15.58,8.19-6.56c0,0,7.39-20.5,32.81-53.31,0,0,14.64-19.73,20.45-45.75a93.91,93.91,0,0,0,2.36-19.95" transform="translate(-32.91 -50.33)"/><path class="cls-31" d="M268.06,488a4.7,4.7,0,0,1,2.12,3.23c.46,4.07-6,8.13-14.48,9.07-4.81.54-9.24-.05-12.22-1.42-2.25-1-3.69-2.48-3.9-4.23a4.18,4.18,0,0,1,.77-2.79c1.13-1.77,3.44-3.38,6.48-4.54" transform="translate(-32.91 -50.33)"/><path class="cls-31" d="M350.57,487.33c2.86,1.25,4.65,3,4.73,5.08.13,3.39-4.56,6.44-11,7.52a29.29,29.29,0,0,1-4.08.44c-8.5.31-15.5-2.75-15.65-6.84A4.69,4.69,0,0,1,326.2,490c2.46-2.43,7.54-4.2,13.46-4.43A25.86,25.86,0,0,1,350.57,487.33Z" transform="translate(-32.91 -50.33)"/><path class="cls-31" d="M282.26,486.56s5.61,6.47,12.69,7a11.65,11.65,0,0,0,7.06-1.67,16.22,16.22,0,0,0,3.77-3.13,24.58,24.58,0,0,0,1.84-2.2" transform="translate(-32.91 -50.33)"/><path class="cls-31" d="M295,493.62s-1.79,13.31,9.58,15.43c0,0,13.42-2.48,1.25-20.29" transform="translate(-32.91 -50.33)"/><path class="cls-31" d="M302,491.89s2.75,4,2.52,7" transform="translate(-32.91 -50.33)"/><path class="cls-31" d="M332.45,417.46s-.29-6.4,5.23-2.31c0,0,5.23,6.22-3,8.29a18.3,18.3,0,0,1-2.21.41s-10.86-.6-4.65-12.79a12.1,12.1,0,0,1,7.29-6.25,14.68,14.68,0,0,1,5.48-.58,24.86,24.86,0,0,1,7.86,1.92s16.33,4.64,13.95,17.7c0,0-2.35,9-12.81,6.4a8.7,8.7,0,0,1-2.83-1.79c-1.56-1.48-2.73-4-.36-7.79,0,0,4.94-3.21,6.11,1.72" transform="translate(-32.91 -50.33)"/><path class="cls-31" d="M346.74,428.46s-.79,6.73-6.44,6.73a10.08,10.08,0,0,1-3.89-.88s-8-4-1.75-10.87" transform="translate(-32.91 -50.33)"/><path class="cls-31" d="M238.71,427a10.51,10.51,0,0,1-.5,1.62s-2.09,3.48-5.4,2.71c-1.44-.35-3.1-1.5-5-4.08,0,0-6-7.21,4-15.79,0,0,3.9-4.1,8.83-5.13a9.69,9.69,0,0,1,8.19,1.92s5.29,4.81-.21,11a6.36,6.36,0,0,1-2.23,1.29c-1.56.54-3.68.44-5.41-2.54,0,0-.42-4.48,3.35-3.52" transform="translate(-32.91 -50.33)"/><path class="cls-31" d="M233.85,426.37s-4.43-2.08.29-4.37c0,0,6.11-1.33,4.57,5" transform="translate(-32.91 -50.33)"/><path class="cls-31" d="M246.41,420.56s6.15,4.21.32,9.13c0,0-5.54,3.95-8-2.67v0" transform="translate(-32.91 -50.33)"/><path class="cls-31" d="M291,549.2s.34-4.92,4.19-1.34c0,0,1.81,2.75.33,4.61a5,5,0,0,1-3.35,1.48,11.09,11.09,0,0,1-1.73.12s-8.23-1.42-2.44-10.16c0,0,4.54-8.23,16.17-2,0,0,12,5,9.1,14.72,0,0-2.58,6.67-10.33,3.75a6.53,6.53,0,0,1-2-1.6c-1-1.27-1.71-3.29.44-6a.82.82,0,0,1,.18-.08c.77-.33,3.92-1.42,4.29,2" transform="translate(-32.91 -50.33)"/><path class="cls-31" d="M300.89,558.82s-1.71,7.25-8.38,3.56c0,0-5.7-3.77-.37-8.43" transform="translate(-32.91 -50.33)"/><path class="cls-31" d="M196.36,364s0,0,0,0c.31,1.17,6.22,21.17,22.45,17.42,0,0,25.23-7.08,36.08,2.56,0,0,11.17,7.4,19.69,5" transform="translate(-32.91 -50.33)"/><path class="cls-31" d="M265.85,397.44s-9,27.41,20.06,31.87c0,0,25.56,1.31,22.79-29.25" transform="translate(-32.91 -50.33)"/><path class="cls-31" d="M282.87,439l-.61.89s8.88,7.56,11.42,9.88l2.33-2.94a71.49,71.49,0,0,1-9.29-7.31c-.85-.81-1.71-1.67-2.52-2.54Z" transform="translate(-32.91 -50.33)"/><path class="cls-31" d="M232.23,434s-4.42,10.42-5.4,14.66l2.71,1.07,5.77-14.23Z" transform="translate(-32.91 -50.33)"/><polygon class="cls-31" points="349.74 352.42 341.91 365.71 344.55 367.42 352.01 353.86 349.74 352.42"/><polygon class="cls-31" points="281.79 478.56 294.12 469.85 295.93 472.58 283.47 481.53 281.79 478.56"/><polygon class="cls-31" points="255.46 522.11 257.54 519.8 269.33 530.09 266.89 532.53 266.85 532.49 255.46 522.11"/><polygon class="cls-31" points="218.65 454.99 220.33 452.79 231.79 462.68 229.88 465.06 218.65 454.99"/><path class="cls-31" d="M285.24,397.44s.9,14.68,0,20" transform="translate(-32.91 -50.33)"/><line class="cls-31" x1="260.77" y1="358.52" x2="263.89" y2="359.21"/><line class="cls-31" x1="259.6" y1="361.77" x2="263.1" y2="364.15"/><line class="cls-31" x1="260.77" y1="353.34" x2="263.89" y2="351.69"/><line class="cls-31" x1="246.25" y1="352.5" x2="242.83" y2="352.5"/><line class="cls-31" x1="246.25" y1="358.52" x2="242.83" y2="359.86"/><line class="cls-31" x1="247" y1="361.77" x2="244.54" y2="364.15"/><path class="cls-31" d="M268.18,402a27.59,27.59,0,0,0,.36,4.13c.93,6,4.39,16.49,17.1,16.39a29.85,29.85,0,0,0,6.87-.94" transform="translate(-32.91 -50.33)"/><path class="cls-31" d="M381.51,471.83s-22.88-11-17.65-31.6a31.82,31.82,0,0,1,2.56-6.65,21.86,21.86,0,0,1,12.69-10.19c5.48-1.68,13-1.66,22.85,2.69" transform="translate(-32.91 -50.33)"/><line class="cls-31" x1="346.97" y1="401.79" x2="341.91" y2="402.73"/><line class="cls-31" x1="346.97" y1="398.83" x2="341.91" y2="397.89"/><line class="cls-31" x1="346.97" y1="395.56" x2="341.91" y2="393.52"/><line class="cls-31" x1="349.61" y1="392.75" x2="347.68" y2="386.98"/><line class="cls-31" x1="354.07" y1="389.87" x2="353.45" y2="384.85"/><path class="cls-31" d="M377.36,429.31s-20.43,13.1-5.64,31.35" transform="translate(-32.91 -50.33)"/><path class="cls-31" d="M251.14,515.07c7.86,2.5,18,9.19,18.65,27a54.73,54.73,0,0,1-.19,6.79c-.08,1.29-.23,2.65-.44,4" transform="translate(-32.91 -50.33)"/><path class="cls-31" d="M241.87,513.6a30.22,30.22,0,0,1,9.25,1.47" transform="translate(-32.91 -50.33)"/><path class="cls-31" d="M247.81,516.55s17.79,4.69,18.83,23" transform="translate(-32.91 -50.33)"/><line class="cls-31" x1="218.65" y1="473.1" x2="218.65" y2="470.85"/><line class="cls-31" x1="221.44" y1="475.7" x2="222.94" y2="473.1"/><line class="cls-31" x1="224.31" y1="479.35" x2="225.73" y2="475.7"/><line class="cls-31" x1="227.29" y1="482.91" x2="228.96" y2="480.99"/><line class="cls-31" x1="229.44" y1="486.18" x2="230.52" y2="484.7"/><path class="cls-31" d="M251.14,515.07h0" transform="translate(-32.91 -50.33)"/><path class="cls-31" d="M323.72,573.13s-15.79-27,14.29-31.06" transform="translate(-32.91 -50.33)"/><path class="cls-31" d="M323.62,566.74a16.4,16.4,0,0,1,4.45-19.5" transform="translate(-32.91 -50.33)"/><line class="cls-31" x1="297.93" y1="498.53" x2="297.93" y2="495.68"/><line class="cls-31" x1="296.83" y1="501.93" x2="295.93" y2="499.24"/><line class="cls-31" x1="295.93" y1="505.05" x2="294.27" y2="502.7"/><line class="cls-31" x1="295.93" y1="507.72" x2="293.14" y2="507.26"/><line class="cls-31" x1="294.27" y1="510.84" x2="291.7" y2="511.51"/><path class="cls-32" d="M246.25,487.57s11.71-5.28,22.65,1.19" transform="translate(-32.91 -50.33)"/><polyline class="cls-31" points="278.3 350.07 282.53 359.21 286.34 357.43 283.23 350.42"/><path class="cls-31" d="M296.05,623.18s4.18,7.39,11.5.65" transform="translate(-32.91 -50.33)"/><path class="cls-12" d="M561.64,195.82c10.41,17.46-4,15-12.66,12.3a26.07,26.07,0,0,0,1.84-14.78Q556,194.3,561.64,195.82Z" transform="translate(-32.91 -50.33)"/><path class="cls-13" d="M559.85,193c.67,1,1.26,1.94,1.79,2.83q-5.6-1.51-10.82-2.48a44.1,44.1,0,0,0-4.25-13.46A75.08,75.08,0,0,1,559.85,193Z" transform="translate(-32.91 -50.33)"/><path class="cls-14" d="M550.82,193.34A26.07,26.07,0,0,1,549,208.12c-1-.31-2-.63-2.76-.91a45.75,45.75,0,0,0-.56-14.73C547.35,192.72,549.07,193,550.82,193.34Z" transform="translate(-32.91 -50.33)"/><path class="cls-14" d="M546.57,179.88a44.1,44.1,0,0,1,4.25,13.46c-1.75-.34-3.47-.62-5.16-.86-3-14.52-12.67-21.67-13-21.93a103.36,103.36,0,0,1,13.93,9.31Z" transform="translate(-32.91 -50.33)"/><path class="cls-12" d="M543.37,206.13c-6.86-4.48-14.33-2-20,1.47,1.43-2.2,5.52-9,4.44-16.34a114.34,114.34,0,0,1,17.83,1.22,45.75,45.75,0,0,1,.56,14.73C544.49,206.6,543.37,206.13,543.37,206.13Z" transform="translate(-32.91 -50.33)"/><path class="cls-6" d="M532.19,222.18c7.37,9.7-7.74.4-8.37,0C535,227.49,532.19,222.18,532.19,222.18Z" transform="translate(-32.91 -50.33)"/><path class="cls-14" d="M527.83,191.26c1.08,7.34-3,14.14-4.44,16.34a0,0,0,0,0,0,0,44,44,0,0,0-6.9,5.3c4.3-10.27,5-17,4.55-21.35Q524.29,191.3,527.83,191.26Z" transform="translate(-32.91 -50.33)"/><path class="cls-14" d="M527.19,188.57a15.66,15.66,0,0,1,.64,2.69q-3.54,0-6.8.3c-.58-5.18-2.9-6.86-2.9-6.86-.22-.25-.46-.51-.71-.75,2-.48,4.07-.9,6.37-1.24A17.89,17.89,0,0,1,527.19,188.57Z" transform="translate(-32.91 -50.33)"/><path class="cls-16" d="M531.35,182c-2.71.14-5.22.4-7.56.75-.62-.75-1.3-1.52-2-2.35A91.39,91.39,0,0,1,531.35,182Z" transform="translate(-32.91 -50.33)"/><path class="cls-6" d="M523.52,255.51c2.28,18-10.37-2.84-10.93-3.77C523.86,266.68,523.69,257.68,523.52,255.51Z" transform="translate(-32.91 -50.33)"/><path class="cls-17" d="M521.75,180.36c.74.83,1.42,1.6,2,2.35-2.3.34-4.42.76-6.37,1.24a33.46,33.46,0,0,0-5-4.09A76.86,76.86,0,0,1,521.75,180.36Z" transform="translate(-32.91 -50.33)"/><path class="cls-14" d="M521.32,179.88l.43.48a76.86,76.86,0,0,0-9.36-.5,92.16,92.16,0,0,0-14.06-7.63c-22.51-11.67-48.48-13.48-49.4-13.54a183.82,183.82,0,0,1,19.22-2.28c.9,0,1.78-.08,2.66-.11h0a116.42,116.42,0,0,1,20,5.21,92,92,0,0,1,17.38,8C516.49,174.56,520.37,178.8,521.32,179.88Z" transform="translate(-32.91 -50.33)"/><path class="cls-12" d="M521,191.56c.48,4.32-.25,11.08-4.55,21.35h0c-1.4,1.31-2.21,2.22-2.21,2.22a90.89,90.89,0,0,1-13,11.44,81.3,81.3,0,0,0,3.69-20.49c.33-6.84-.45-9.38-1.32-11.2,0-.09-.08-.17-.13-.26A92.08,92.08,0,0,1,521,191.56Z" transform="translate(-32.91 -50.33)"/><path class="cls-6" d="M518.19,238c1,10.41,9.62-1.46,10.39-2.53C516.73,255,518.19,238,518.19,238Z" transform="translate(-32.91 -50.33)"/><path class="cls-18" d="M518.13,184.7s2.32,1.68,2.9,6.86a92.08,92.08,0,0,0-17.57,3.07,15.18,15.18,0,0,0-2.87-4c3.3-1.65,4.83-2.44,6.7-3.26A61.14,61.14,0,0,1,517.42,184C517.67,184.19,517.91,184.45,518.13,184.7Z" transform="translate(-32.91 -50.33)"/><path class="cls-16" d="M517.42,184a61.14,61.14,0,0,0-10.13,3.43c-1.87.82-3.4,1.61-6.7,3.26a41.63,41.63,0,0,0-7.13-5.34c-.9-.58-1.76-1.1-2.61-1.57,2-.67,4-1.3,5.75-1.77a61.58,61.58,0,0,1,15.79-2.1A33.46,33.46,0,0,1,517.42,184Z" transform="translate(-32.91 -50.33)"/><path class="cls-13" d="M498.33,172.23a92.16,92.16,0,0,1,14.06,7.63A61.58,61.58,0,0,0,496.6,182c-1.73.47-3.73,1.1-5.75,1.77a81.07,81.07,0,0,0-10.07-4.5,137.83,137.83,0,0,0-13.59-4.62,125.59,125.59,0,0,0-62.09-2c13.84-7.7,30.92-11.81,43.81-14h0C449.85,158.75,475.82,160.56,498.33,172.23Z" transform="translate(-32.91 -50.33)"/><path class="cls-14" d="M503.59,194.89c.87,1.82,1.65,4.36,1.32,11.2a81.3,81.3,0,0,1-3.69,20.49c-2.55,1.86-5.15,3.56-7.76,5.11,1.62-6.76,3.73-20,3.73-20,2-6.73,1.13-11.51-.62-14.83,2-.77,4.32-1.55,6.89-2.27C503.51,194.72,503.55,194.8,503.59,194.89Z" transform="translate(-32.91 -50.33)"/><path class="cls-6" d="M503.46,247.83c.39,10.4-8.33,12.8-8.33,12.8-8.52,9.11-11.69,1-11.69,1,9.93,2.72,10-6.6,10-6.93C497.14,261,503.46,247.83,503.46,247.83Z" transform="translate(-32.91 -50.33)"/><path class="cls-14" d="M500.59,190.64a15.18,15.18,0,0,1,2.87,4c-2.57.72-4.87,1.5-6.89,2.27a14.06,14.06,0,0,0-2.26-3.15C497,192.44,499,191.44,500.59,190.64Z" transform="translate(-32.91 -50.33)"/><path class="cls-17" d="M493.46,185.3a41.63,41.63,0,0,1,7.13,5.34c-1.6.8-3.61,1.8-6.28,3.11a14.74,14.74,0,0,0-5.44-3.7,36.48,36.48,0,0,0-6.9-3.27c1.39-.5,2.8-1,4.23-1.48s3.07-1.06,4.65-1.57C491.7,184.2,492.56,184.72,493.46,185.3Z" transform="translate(-32.91 -50.33)"/><path class="cls-12" d="M496.57,196.9c1.75,3.32,2.59,8.1.62,14.83,0,0-2.11,13.2-3.73,20a118.56,118.56,0,0,1-15.06,7.57c2.9-17.2-.75-25.66-4.12-29.67a113.89,113.89,0,0,0,11.4-7.24A51.3,51.3,0,0,1,496.57,196.9Z" transform="translate(-32.91 -50.33)"/><path class="cls-18" d="M494.31,193.75a14.06,14.06,0,0,1,2.26,3.15,51.3,51.3,0,0,0-10.89,5.45,113.89,113.89,0,0,1-11.4,7.24,12,12,0,0,0-4.11-3.27c2.63-1.64,5.77-3.58,10.69-6.09,1.86-.95.77-.35,7.83-3.75Z" transform="translate(-32.91 -50.33)"/><path class="cls-16" d="M494.31,193.75l-5.62,2.73c-7.06,3.4-6,2.8-7.83,3.75-4.92,2.51-8.06,4.45-10.69,6.09l-.26-.1c-3.59-2.55-11.17-4.73-18.54-6.37l.47-.23c2.16-1,5.48-2.67,11.38-5.6,0,0,8.6-3.61,18.75-7.24a36.48,36.48,0,0,1,6.9,3.27A14.74,14.74,0,0,1,494.31,193.75Z" transform="translate(-32.91 -50.33)"/><path class="cls-14" d="M480.78,179.23a81.07,81.07,0,0,1,10.07,4.5c-1.58.51-3.17,1.06-4.65,1.57s-2.84,1-4.23,1.48a177,177,0,0,0-17.61-5.34c-25.47-8.24-69.27-1.69-70.06-1.57,1.57-1.19,2.5-1.82,2.5-1.82a67.17,67.17,0,0,1,8.3-5.39,125.59,125.59,0,0,1,62.09,2A137.83,137.83,0,0,1,480.78,179.23Z" transform="translate(-32.91 -50.33)"/><path class="cls-14" d="M474.28,209.59c3.37,4,7,12.47,4.12,29.67-1.73.72-3.43,1.39-5.08,2l.9-11.66c.19-8-3-13.22-6.57-16.56C469.81,212,472,210.85,474.28,209.59Z" transform="translate(-32.91 -50.33)"/><path class="cls-13" d="M464.36,181.44A177,177,0,0,1,482,186.78c-10.15,3.63-18.75,7.24-18.75,7.24-5.9,2.93-9.22,4.56-11.38,5.6l-.47.23c-9.44-2.11-18.55-3.33-18.55-3.33-25-5-55.33-1-55.33-1a117.71,117.71,0,0,1,16.8-15.65h0C395.09,179.75,438.89,173.2,464.36,181.44Z" transform="translate(-32.91 -50.33)"/><path class="cls-13" d="M470.81,156.3c26.9-.82,47.34,6.16,61.81,14.24h0c.36.26,10,7.41,13,21.93a114.34,114.34,0,0,0-17.83-1.22,15.66,15.66,0,0,0-.64-2.69,17.89,17.89,0,0,0-3.4-5.86c2.34-.35,4.85-.61,7.56-.75a91.39,91.39,0,0,0-9.6-1.6l-.43-.48c-1-1.08-4.83-5.32-13.14-10.32a92,92,0,0,0-17.38-8,116.42,116.42,0,0,0-20-5.21Z" transform="translate(-32.91 -50.33)"/><path class="cls-12" d="M467.65,213c3.62,3.34,6.76,8.56,6.57,16.56l-.9,11.66a135.82,135.82,0,0,1-17.4,5.17c1.19-16.07-6.43-22-12.58-24.25A134.25,134.25,0,0,0,467.65,213Z" transform="translate(-32.91 -50.33)"/><path class="cls-6" d="M463.22,276.09c15.75,9.05,11.43-3,11.43-3,6.9,5,2.16,8.4,2.16,8.4C466.24,285.14,463.22,276.09,463.22,276.09Z" transform="translate(-32.91 -50.33)"/><path class="cls-14" d="M470.17,206.32a12,12,0,0,1,4.11,3.27c-2.25,1.26-4.47,2.41-6.63,3.45a22.87,22.87,0,0,0-4-2.93C466,208.94,467.89,207.74,470.17,206.32Z" transform="translate(-32.91 -50.33)"/><path class="cls-17" d="M469.91,206.22l.26.1c-2.28,1.42-4.17,2.62-6.5,3.79a23.35,23.35,0,0,0-6.27-2.59c-3-1.51-8.55-2.75-14.7-3.75,1.31-.57,2.86-1.26,4.76-2.11,1.15-.51,2.08-.93,3.91-1.81C458.74,201.49,466.32,203.67,469.91,206.22Z" transform="translate(-32.91 -50.33)"/><path class="cls-16" d="M463.67,210.11c-1.1.55-2.3,1.09-3.69,1.65A43.75,43.75,0,0,1,448.91,215c-8.42,1.17-15.35-.68-21.92-2.43-3.06-.82-6.51-1.93-9.19-2.83s-4.6-1.59-4.6-1.59a67.84,67.84,0,0,0,24.29-2.32,54.27,54.27,0,0,0,5.21-2c6.15,1,11.69,2.24,14.7,3.75A23.35,23.35,0,0,1,463.67,210.11Z" transform="translate(-32.91 -50.33)"/><path class="cls-14" d="M432.82,196.52s9.11,1.22,18.55,3.33c-1.83.88-2.76,1.3-3.91,1.81-1.9.85-3.45,1.54-4.76,2.11-13.2-2.15-29.23-3.15-29.23-3.15-18.28-.87-40.16,0-40.16,0,1.36-1.79,2.76-3.49,4.18-5.1C377.49,195.52,407.81,191.56,432.82,196.52Z" transform="translate(-32.91 -50.33)"/><path class="cls-12" d="M432.61,226.78s18.25,1.21,16.13,21.05c-1.27.2-2,.28-2,.28-33.95,5.66-57.4-3.63-69.28-10.48,0,0-.1-15.45,14.68-14.59C392.17,223,420.75,224.7,432.61,226.78Z" transform="translate(-32.91 -50.33)"/><path class="cls-14" d="M443.34,222.18c6.15,2.21,13.77,8.18,12.58,24.25h0c-3.13.7-5.6,1.14-7.18,1.39,2.12-19.84-16.13-21.05-16.13-21.05-11.86-2.08-40.44-3.74-40.44-3.74-14.78-.86-14.68,14.59-14.68,14.59a67.87,67.87,0,0,1-6.6-4.31s1.54-17.61,21.28-16.31c0,0,8.46.56,18.56,1.38,8.67.71,18.55,1.6,25.33,2.5A21.33,21.33,0,0,1,443.34,222.18Z" transform="translate(-32.91 -50.33)"/><path class="cls-13" d="M413.47,200.62s16,1,29.23,3.15a54.27,54.27,0,0,1-5.21,2,67.84,67.84,0,0,1-24.29,2.32s1.92.69,4.6,1.59,6.13,2,9.19,2.83c6.57,1.75,13.5,3.6,21.92,2.43A43.75,43.75,0,0,0,460,211.76c1.39-.56,2.59-1.1,3.69-1.65a22.87,22.87,0,0,1,4,2.93,134.25,134.25,0,0,1-24.31,9.14,21.33,21.33,0,0,0-7.28-1.29c-6.78-.9-16.66-1.79-25.33-2.5-16.16-1.45-38.71-16-38.71-16,.42-.59.85-1.16,1.29-1.73C373.31,200.62,395.19,199.75,413.47,200.62Z" transform="translate(-32.91 -50.33)"/><path class="cls-6" d="M432.7,264.69a5.62,5.62,0,1,1-5.61,5.61A5.61,5.61,0,0,1,432.7,264.69Z" transform="translate(-32.91 -50.33)"/><path class="cls-6" d="M406.47,267.1c8.13,7.15,10.23-.42,10.23-.42.14,12.19-10.37,3.22-10.37,3.22-10.92,5.05-8.68-5.88-8.68-5.88C400.17,272,406.47,267.1,406.47,267.1Z" transform="translate(-32.91 -50.33)"/><circle class="cls-6" cx="354.02" cy="210.78" r="5.61"/><path class="cls-12" d="M370.89,233.32c-1.61-1.2-2.42-1.95-2.42-1.95-10.82-5.41-.78-22.41-.78-22.41a77.56,77.56,0,0,1,4.33-6.61s22.55,14.59,38.71,16c-10.1-.82-18.56-1.38-18.56-1.38C372.43,215.71,370.89,233.32,370.89,233.32Z" transform="translate(-32.91 -50.33)"/><path class="cls-5" d="M528.58,235.5c-.77,1.07-9.39,12.94-10.39,2.53C518.19,238,516.73,255,528.58,235.5Zm-4.76-13.31c.63.39,15.74,9.69,8.37,0C532.19,222.18,535,227.49,523.82,222.19Zm-.3,33.32c.17,2.17.34,11.17-10.93-3.77C513.15,252.67,525.8,273.55,523.52,255.51Zm-30.06-.82c0,.33-.09,9.65-10,6.93,0,0,3.17,8.12,11.69-1,0,0,8.72-2.4,8.33-12.8C503.46,247.83,497.14,261,493.46,254.69ZM366.35,239.26s34.61,19.29,67.87,18c0,0,28.22.46,52.87-16,0,0,23.47-13.79,35.05-22.1,0,0,13.83-7.41,22.21-2.52a17.89,17.89,0,0,1-1.38,4.17,10.21,10.21,0,0,1-1.4,13.39,13.61,13.61,0,0,1,.51,10.82c3.35,8-3.86,12.62-3.86,12.62a11.5,11.5,0,0,1-5.67,6.19c-1.29,5.15-8.24,5.15-8.24,5.15-1.55,6.44-11.85,7.47-11.85,7.47-.26,9.27-12.88,6.69-12.88,6.69-2.83,7.22-12.88,6.7-12.88,6.7-8,11.08-17.77,7.21-17.77,7.21-5.93,9.53-18.81,4.09-18.81,4.09-9.79,5.11-16.23-2.14-16.23-2.14-7.72,5.3-11.85-.92-11.85-.92a13.48,13.48,0,0,1-12.87-1.8c-6.44,1.29-11.34-3.35-11.34-3.35-13.65,0-17.77-5.15-17.77-5.15-10.05-4.89-9.79-12.62-9.79-12.62-5.92-5.93-1.8-14.43-1.8-14.43-6.19-4.37,0-14.16,0-14.16-2-1.85-2.35-4.63-2.13-7.31Zm110.46,42.22s4.74-3.43-2.16-8.4c0,0,4.32,12.06-11.43,3C463.22,276.09,466.24,285.14,476.81,281.48Zm-38.5-11.18a5.61,5.61,0,1,0-5.61,5.62A5.61,5.61,0,0,0,438.31,270.3Zm-32-.4s10.51,9,10.37-3.22c0,0-2.1,7.57-10.23.42,0,0-6.3,4.9-8.82-3.08C397.65,264,395.41,275,406.33,269.9Zm-13.79-8.79a5.61,5.61,0,1,0-5.61,5.61A5.61,5.61,0,0,0,392.54,261.11Z" transform="translate(-32.91 -50.33)"/><path class="cls-15" d="M366.34,239.26a26.9,26.9,0,0,1,2.13-7.89s.81.75,2.42,1.95a67.87,67.87,0,0,0,6.6,4.31c11.88,6.85,35.33,16.14,69.28,10.48,0,0,.7-.08,2-.28,1.58-.25,4.05-.69,7.18-1.39h0a135.82,135.82,0,0,0,17.4-5.17c1.65-.61,3.35-1.28,5.08-2a118.56,118.56,0,0,0,15.06-7.57c2.61-1.55,5.21-3.25,7.76-5.11a90.89,90.89,0,0,0,13-11.44s.81-.91,2.21-2.22h0a44,44,0,0,1,6.9-5.3,0,0,0,0,1,0,0c5.65-3.49,13.12-5.95,20-1.47a17,17,0,0,1,1,10.51c-8.38-4.89-22.21,2.52-22.21,2.52-11.58,8.31-35.05,22.1-35.05,22.1-24.65,16.47-52.87,16-52.87,16-33.26,1.28-67.87-18-67.87-18Z" transform="translate(-32.91 -50.33)"/><path class="cls-10" d="M394.29,179.87a117.71,117.71,0,0,0-16.8,15.65c-1.42,1.61-2.82,3.31-4.18,5.1-.44.57-.87,1.14-1.29,1.73a77.56,77.56,0,0,0-4.33,6.61s-10,17,.78,22.41a26.9,26.9,0,0,0-2.13,7.89c-.22,2.68.18,5.46,2.13,7.31,0,0-6.19,9.79,0,14.16,0,0-4.12,8.5,1.8,14.43,0,0-.26,7.73,9.79,12.62,0,0,4.12,5.15,17.77,5.15,0,0,4.9,4.64,11.34,3.35a13.48,13.48,0,0,0,12.87,1.8s4.13,6.22,11.85.92c0,0,6.44,7.25,16.23,2.14,0,0,12.88,5.44,18.81-4.09,0,0,9.78,3.87,17.77-7.21,0,0,10.05.52,12.88-6.7,0,0,12.62,2.58,12.88-6.69,0,0,10.3-1,11.85-7.47,0,0,7,0,8.24-5.15a11.5,11.5,0,0,0,5.67-6.19s7.21-4.63,3.86-12.62a13.61,13.61,0,0,0-.51-10.82,10.21,10.21,0,0,0,1.4-13.39,17.89,17.89,0,0,0,1.38-4.17,17,17,0,0,0-1-10.51s1.12.47,2.85,1.08c.8.28,1.74.6,2.76.91,8.61,2.65,23.07,5.16,12.66-12.3-.53-.89-1.12-1.83-1.79-2.83a75.08,75.08,0,0,0-13.28-13.11" transform="translate(-32.91 -50.33)"/><path class="cls-10" d="M448.91,158.69c-12.89,2.16-30,6.27-43.81,14a67.17,67.17,0,0,0-8.3,5.39s-.93.63-2.5,1.82" transform="translate(-32.91 -50.33)"/><path class="cls-10" d="M532.62,170.54c-14.47-8.08-34.91-15.06-61.81-14.24-.88,0-1.76.06-2.66.11a183.82,183.82,0,0,0-19.22,2.28" transform="translate(-32.91 -50.33)"/><path class="cls-10" d="M546.56,179.86a103.36,103.36,0,0,0-13.93-9.31" transform="translate(-32.91 -50.33)"/><path class="cls-10" d="M455.92,246.44c-3.13.7-5.6,1.14-7.18,1.39-1.27.2-2,.28-2,.28-33.95,5.66-57.4-3.63-69.28-10.48a67.87,67.87,0,0,1-6.6-4.31c-1.61-1.2-2.42-1.95-2.42-1.95" transform="translate(-32.91 -50.33)"/><path class="cls-10" d="M516.47,212.92c-1.4,1.31-2.21,2.22-2.21,2.22a90.89,90.89,0,0,1-13,11.44c-2.55,1.86-5.15,3.56-7.76,5.11a118.56,118.56,0,0,1-15.06,7.57c-1.73.72-3.43,1.39-5.08,2a135.82,135.82,0,0,1-17.4,5.17" transform="translate(-32.91 -50.33)"/><path class="cls-10" d="M523.38,207.61a44,44,0,0,0-6.9,5.3" transform="translate(-32.91 -50.33)"/><path class="cls-10" d="M543.37,206.13c-6.86-4.48-14.33-2-20,1.47" transform="translate(-32.91 -50.33)"/><path class="cls-11" d="M397.65,264s-2.24,10.93,8.68,5.88c0,0,10.51,9,10.37-3.22,0,0-2.1,7.57-10.23.42C406.47,267.1,400.17,272,397.65,264Z" transform="translate(-32.91 -50.33)"/><path class="cls-11" d="M463.22,276.09s3,9.05,13.59,5.39c0,0,4.74-3.43-2.16-8.4C474.65,273.08,479,285.14,463.22,276.09Z" transform="translate(-32.91 -50.33)"/><line class="cls-10" x1="423.01" y1="196.1" x2="423.01" y2="196.11"/><line class="cls-11" x1="460.55" y1="204.36" x2="460.55" y2="204.35"/><path class="cls-11" d="M493.46,254.69c0,.33-.09,9.65-10,6.93,0,0,3.17,8.12,11.69-1,0,0,8.72-2.4,8.33-12.8C503.46,247.83,497.14,261,493.46,254.69Z" transform="translate(-32.91 -50.33)"/><path class="cls-11" d="M523.47,255.08c0,.15,0,.29,0,.43.17,2.17.34,11.17-10.93-3.77,0,0,0,0,0,0" transform="translate(-32.91 -50.33)"/><path class="cls-11" d="M512.59,251.74c.56.93,13.21,21.81,10.93,3.77" transform="translate(-32.91 -50.33)"/><path class="cls-11" d="M528.58,235.5l0,0,0-.06" transform="translate(-32.91 -50.33)"/><path class="cls-11" d="M518.19,238s-1.46,16.92,10.39-2.53C527.81,236.57,519.19,248.44,518.19,238Z" transform="translate(-32.91 -50.33)"/><path class="cls-11" d="M523.82,222.19c.63.39,15.74,9.69,8.37,0C532.19,222.18,535,227.49,523.82,222.19Z" transform="translate(-32.91 -50.33)"/><path class="cls-11" d="M523.8,222.18h0" transform="translate(-32.91 -50.33)"/><path class="cls-10" d="M394.29,179.87h0" transform="translate(-32.91 -50.33)"/><line class="cls-10" x1="483.57" y1="162.58" x2="483.56" y2="162.59"/><path class="cls-10" d="M448.91,158.69h0" transform="translate(-32.91 -50.33)"/><path class="cls-10" d="M523.39,207.6a0,0,0,0,0,0,0" transform="translate(-32.91 -50.33)"/><path class="cls-10" d="M532.62,170.54h0" transform="translate(-32.91 -50.33)"/><path class="cls-10" d="M546.56,179.86v0" transform="translate(-32.91 -50.33)"/><circle class="cls-11" cx="354.02" cy="210.78" r="5.61"/><path class="cls-11" d="M438.31,270.3a5.61,5.61,0,1,1-5.61-5.61A5.62,5.62,0,0,1,438.31,270.3Z" transform="translate(-32.91 -50.33)"/></svg>